<?xml version="1.0" encoding="UTF-8"?>
<!DOCTYPE svg PUBLIC "-//W3C//DTD SVG 1.1//EN" "http://www.w3.org/Graphics/SVG/1.1/DTD/svg11.dtd">
<!-- Creator: CorelDRAW 2021.5 -->
<svg xmlns="http://www.w3.org/2000/svg" xml:space="preserve" width="1000mm" height="700mm" version="1.1" style="shape-rendering:geometricPrecision; text-rendering:geometricPrecision; image-rendering:optimizeQuality; fill-rule:evenodd; clip-rule:evenodd"
viewBox="0 0 100000 70000"
 xmlns:xlink="http://www.w3.org/1999/xlink"
 xmlns:xodm="http://www.corel.com/coreldraw/odm/2003">
 <defs>
  <style type="text/css">
   <![CDATA[
    .str0 {stroke:black;stroke-width:105.83;stroke-miterlimit:22.9256}
    .str1 {stroke:#7B0000;stroke-width:105.83;stroke-miterlimit:22.9256}
    .fil1 {fill:none}
    .fil0 {fill:url(#id0)}
   ]]>
  </style>
  <linearGradient id="id0" gradientUnits="userSpaceOnUse" x1="49833.5" y1="-0.52" x2="48790.88" y2="106336.74">
   <stop offset="0" style="stop-opacity:1; stop-color:black"/>
   <stop offset="0.6" style="stop-opacity:1; stop-color:#7F0000"/>
   <stop offset="1" style="stop-opacity:1; stop-color:red"/>
  </linearGradient>
 </defs>
 <g id="Слой_x0020_1">
  <metadata id="CorelCorpID_0Corel-Layer"/>
  <rect class="fil0" x="-46.03" y="1.2" width="100110.18" height="70000"/>
  <path class="fil1 str0" d="M-4.13 37812.67c1674.47,-1198.66 1795.72,-1114.46 1869.92,1182.78 68.82,2130.72 70.95,4230.78 241.03,6360.21 16.23,190.57 33.63,380.79 51.27,571.23 167.23,1770.67 633.09,5528.12 2603.38,6241.59 545.27,197.45 1140.38,526.35 1702.15,581.95 103.78,-464.64 -1064.15,-1875.73 -1340.78,-2339.41 -1222.93,-2191.47 -1896.15,-5898.03 135.49,-7829.4 1372.25,-1304.52 2186.83,-1189.57 2839.98,-3346.17 380.48,-1256.25 685.53,-2265.42 994.81,-3549.94 230.16,-955.94 657.14,-1464.4 1642.98,-1107.16 1331.37,482.44 1361.76,674.54 2934.09,556.37 1320.66,-99.26 2746.43,-235.15 4068.08,-365.03 4505.24,-442.75 6014.98,-1954.22 9438.19,-4480.43 2448.94,-1807.23 2056.86,-1019.46 4631.65,-74.54 3987.51,1463.37 8610.91,777.98 12645,-93.38 3429.77,-740.83 11148.54,-2736.63 14309.28,-2415.54 4238.95,430.63 7170.11,4071.83 10968.3,5878.79l196.46 93.46c2546.63,1186.31 4870.43,1603.69 7578.32,687.47 1732.25,-586.11 3382.72,-1386.23 5147.05,-1991.29 348.48,-119.5 2516.35,-808.81 2661.58,-994.44 591.26,-755.73 -2072.72,-2244.84 -2640.65,-2534.98 -2568.14,-1311.99 -8314.92,-3526.18 -7544.92,-7278.06 291.8,-1421.79 1893.9,-2820.94 2904.21,-3860.07 2483.49,-2554.32 7717.19,-7582.56 11322.81,-7912.06 1335.07,-91.8 2275.89,1159.99 3015.27,2103.58 2084.06,2659.63 2961.16,4510.24 5715.42,6755.17l1909.63 1571.87"/>
  <path class="fil1 str1" d="M99995.87 56630.24c-389.33,474.75 -812.69,843.03 -1272.54,1068.85 -469.53,230.58 -2764.93,810.91 -3126.8,455.5 156.98,-511.83 2066.73,-1772.82 2563.34,-2316.6 1007.94,-1103.64 2439.62,-3909.73 1304.23,-5252.95 -2072.62,-1517.66 -4206.1,912.96 -5056.76,-1853.21 -448.13,-1457.26 1205.76,-2278.36 1005.88,-3664.54 -2072.25,1634.6 -3116.5,3363.08 -5946.13,4104.62 -2248.85,589.34 -4059.81,-166.69 -6281.58,-253.13 -3049.53,-118.64 -5064.43,42.18 -8012.57,-1216.23 -1921.71,-820.28 -4245.69,-2517.68 -4040.35,-4881.57 210.65,-2424.93 3972.71,-3697.61 3778.43,-4681.22 -108.96,-551.63 -749.89,-763.44 -489.6,-1960.19 665.77,-3061.08 1830.22,-5048.13 1965.57,-8434.53 342.86,-8577.72 -7568.86,-11872.37 -15016.94,-10268.82 -1049.56,235.46 -1940.41,566.71 -2949.84,836.71 -2199.99,588.44 -2426.28,-1554.04 -5606.17,1819.43 -2823.12,2994.97 -5702.46,8434.25 -8990.5,10438.68 -2209.86,1347.15 -4735.05,1012.05 -7297.34,2430.17 -3054.63,1690.62 -5629.18,3732.57 -9322.1,3876.3 -2511.38,97.74 -2890.14,-710.92 -5038.74,-1334.8 -1959.84,-569.07 -3817.95,-991.85 -5768.76,-1639.47 -533.91,-177.25 -849.9,-270.27 -1417.68,-288.96 -777.14,-25.58 -147.24,-500.86 540.19,-558.59 1539.96,-129.32 1913.33,31.51 3535.71,-464.54 2791.69,-853.57 3480.92,-2199.14 4865.31,-4582.23 954.49,-1643.06 2223.8,-4236.8 653.31,-5899.24 -1490.93,-1578.21 -3752.84,-3194.01 -5450.1,-4650.16 -1860.97,-1596.6 -3636.19,-3425.14 -5502.4,-4949.51 -1191.29,-973.08 -3086.12,-2416.22 -4652.27,-1458.46 -1433.48,876.63 -3610.83,4877.74 -4910.9,6463.36 -948.4,1156.7 -1646.14,1708.74 -2887.63,2521.09 -326.7,213.76 -852.53,613.96 -1174.27,840.27"/>
  <path class="fil1 str0" d="M-4.13 38984.93c825.29,-338.98 1147.55,-575.11 1322.38,556.65 283.56,1835.64 321.07,4077.81 504.14,5984.72 213.74,2226.47 584.81,5062.83 2027.59,6850.74 684.19,808.27 1725.56,853.34 2677.67,1467.96 361.35,233.26 5126.39,3922.96 2954.26,1178.05 -1327.03,-1676.95 -3211.08,-3441.67 -4248.59,-5212.89 -1196.53,-2213.93 -1516.14,-5083.14 441.06,-6978.66 1472,-1425.6 1962.64,-1308.14 2660.35,-3457.33 185.61,-571.74 1217.99,-3434.96 1452.02,-3789.85 475.02,-720.35 1415.46,-58.43 2239.93,25.5 1234.96,125.7 3389.76,-461.56 4739.38,-646.52 4948.79,-678.2 5276.98,-1016 9513.55,-3405.6 743.87,-419.57 2210.38,-1303.8 3066.93,-1117.52 546.12,118.77 1406.31,475.23 2033.24,648.3 7393.73,2041.03 13876.27,-456.32 21083.89,-1805.47 6928.65,-1296.94 8127.08,-952.68 13967.06,2849.3 2361.39,1537.32 4364.93,2693.99 7221.63,3055.71 2993.83,345.27 4944.12,-985.86 7694.96,-1845.29 1720.58,-537.56 3430.77,-882.15 5226.87,-1031.06 976.87,-80.99 860.91,-529.63 340.89,-1199.02 -1202.14,-1547.4 -5221.59,-3056.05 -7089.43,-4035.53 -2909.64,-1525.79 -6146.46,-3994.56 -3196.85,-7346.02 779.73,-885.96 1753.04,-1904.49 2583.95,-2752.32 2197.06,-2241.8 4841.65,-4570.89 7654.38,-5991.93 3112.4,-1543.57 4050.17,-468.09 5938.29,2044.69 1945.08,2588.6 2756.49,4057.69 5376.34,6155.22l1814.11 1446.7"/>
  <path class="fil1 str1" d="M99995.87 57314.19c-302.2,366.36 -623.37,672.53 -964.9,902.78 -1153.63,777.74 -2529.6,660.41 -3871.55,1158.3 -421.46,168.1 -3237.05,1447.83 -3453.61,1082.05 -330.54,-558.31 2118.42,-2181.29 2603.5,-2469.45 2258.76,-1341.82 4514.81,-2447.11 5055.02,-5271.76 213.2,-1835.59 -773.74,-2213.23 -2411.17,-2267.86 -734.77,10.77 -2063.91,226.65 -2476.07,-541.62 -973.04,-1813.78 -222.66,-1909.48 323.44,-3466.83 280.56,-800.1 -52.55,-408.26 -460.44,-117.28 -2061.21,1470.38 -3236.62,2849 -5963.1,3188.64 -1658.29,206.58 -3253.63,-438.9 -4971.31,-538.85 -2363.77,-137.54 -3868.69,53.71 -6301.65,-550.81 -2552.39,-634.2 -5863.76,-2212.43 -6213.31,-5169.01 -307.97,-2604.93 2954.14,-3769.99 2894.81,-5090.13 -30.28,-673.96 -244.52,-888.67 -145.48,-1763.05 140.18,-1237.6 1269.84,-3952.66 1661.18,-5407.46 1690.59,-6284.66 -571.99,-11887.8 -7310.65,-13270.56 -4321.29,-850.26 -7470.5,195.06 -11375.63,1914.26 -1868.77,822.71 -1944.11,-4.74 -3869.36,1713.95 -3182.55,2841.1 -6071.64,8469.78 -9751.77,10141.74 -1801.67,818.53 -3864.9,850.5 -5862.93,1809.08 -1455.4,698.25 -2866.97,1645.35 -4372.84,2383.93 -2748.22,1347.92 -6141.83,2361.45 -9079.69,1001.13 -1402.69,-649.49 -1873.29,-818.81 -3386.25,-1192.21 -1245.77,-307.46 -5244.49,-1366.14 -6296.81,-1338.83 -509.43,13.22 -1598.01,404.11 -1836.97,70.92 -326.7,-455.51 713.7,-969.62 1058.8,-1065.41 668.73,-185.61 2621.95,-179.07 3505.48,-280.59 2127.47,-244.45 4311.91,-934.01 5575.04,-2774.99 825.3,-1202.84 2138.64,-3678.79 2380.72,-5109.64 320.94,-1896.99 -493.03,-2615.27 -1781.37,-3827.09 -1580.6,-1486.72 -3371.23,-2901.87 -5005.12,-4378.22 -1667,-1506.25 -4963.81,-4822.82 -6954.28,-5381.22 -1381.92,-387.67 -2203.43,460.22 -3048.66,1428.06 -2355.3,2696.99 -3105.21,5249.4 -6302.35,7420.19 -495.74,336.59 -1092.87,724.93 -1590.72,1059.67"/>
  <path class="fil1 str0" d="M-4.13 40311.33c915.7,-17.7 882.47,277.76 1015.75,1153.98 584.86,3844.94 397.74,7911.93 2646.33,11272.24 813.35,1146.35 1839.49,1071.37 2999.64,1813.29 1059.89,677.81 2139.32,1604.22 3220.75,2346.47 579.6,397.81 3209.95,2131.62 3792.96,1800.32 -86,-378.04 -1631.66,-1671.97 -2045.92,-2109.21 -1285.09,-1356.4 -2612.2,-2652.67 -3886.22,-3998.04 -1994.52,-2142.63 -4132.14,-5238.76 -2640.81,-8252.26 909.76,-1838.34 2469.12,-1825.33 3261.26,-4263.21 377.7,-1162.4 829.53,-2316.55 1291.26,-3448.43 566.36,-1388.35 1233.87,-759.63 2487.17,-697.62 1177.13,58.23 3512.95,-639.5 4865.1,-838.52 3628.81,-534.13 4727.83,-725.4 8077.05,-2318.44 984.56,-468.3 3040.33,-1441.37 4108.83,-1230.43 558.88,110.34 1177.88,302.8 1778.78,424.34 4303.14,870.41 7744.86,974.07 12072.77,188.47 4128.93,-749.48 12427.22,-2987.7 16170.22,-2611.25 2861.5,287.8 5471.77,2179.62 7934.16,3581.55 3198.65,1813.24 6529.59,3237.46 10220.8,2031.66 1714.04,-559.92 2960.18,-1192.41 4800.47,-1625.88 2028.31,-477.77 3447.46,-573.04 5515.07,-532.18 1417.43,28.02 1028.39,-1277.7 362.74,-1957.85 -2102.82,-2148.62 -7333.05,-3542.9 -10056.93,-5502.52 -1829.55,-1316.22 -2847.79,-3042.28 -1368.19,-5097.41 549.46,-763.19 1584.77,-1885.86 2248.19,-2617.85 2267.81,-2502.21 6049.17,-6105.76 9382.75,-6922.28 1676.69,-381.96 2294.12,225.6 3407.68,1426.32 2462.67,2655.42 3394.18,4973.53 6545.38,7323.21 327.85,244.45 1508.97,1137.63 1792.96,1385.64"/>
  <path class="fil1 str1" d="M99995.87 57852.41c-509.89,593 -1069.76,1043.27 -1684.35,1283.13 -1643.97,604.89 -2670.08,476.62 -4439.42,1370.29 -1075.07,543.01 -4797.7,2635.92 -5856.12,2334.8 -282.43,-80.36 446.86,-613.83 552.36,-709.16 800.09,-722.94 1518.31,-1316.65 2304.55,-2084.58 1877.41,-1833.67 3626.12,-2290 5626.37,-3757.63 1230.12,-921.27 2622.33,-2478.13 2317.13,-4150.89 -453.88,-1330.5 -1496.85,-1253.02 -2728.91,-1272.79 -1572.85,-25.24 -1987.47,-76.81 -2303.05,-1810.84 -230.05,-1264.02 427.19,-1219.26 520.73,-2039.69 72.3,-634.16 -1118.41,412.78 -1303.66,543.3 -2605.06,1835.53 -4481.13,2552.84 -7654.36,1816.27 -2577.12,-598.19 -4844.18,-250.83 -7466.5,-718.23 -2881.79,-513.65 -6672.17,-2080.42 -7241.11,-5337.75 -459.82,-2632.57 1702.27,-3304.58 1885.12,-4711.58 113.57,-873.97 -2.67,-1362.23 236.5,-2366.65 541.95,-2275.99 1796.8,-4397.22 2286.13,-6830.42 1873.56,-9316.41 -6703.51,-13455.85 -14699.05,-10788.08 -3313.7,1131.85 -7733.2,3878.12 -10120.82,6444.04 -2466.02,2650.18 -4553.13,6096.91 -8167.83,7287.57 -2273.59,748.91 -3617.15,816.71 -5890.47,2020.1 -3443.66,1822.92 -7236.65,4033.69 -11299.82,3244.01 -1453.37,-282.47 -2788.7,-1225.01 -4361.71,-1657.96 -1418.97,-390.55 -3163.75,-771.82 -4614.77,-1056.57 -1695.57,-332.75 -2209.68,-335.29 -3853.21,107.03 -669.1,180.08 -1286.75,193.14 -1388.64,-669.41 -215.03,-1820.38 3103.31,-1619.08 4213.87,-1646.66 2790.18,-69.3 6025,-278.43 7514.72,-3018.76 615.42,-1132.08 1385.8,-3125.64 1545.75,-4402.04 215.1,-1716.44 -255.01,-2253.53 -1339.63,-3503.63 -1501.05,-1730.06 -3675.27,-3624.65 -5379.34,-5217.15 -1493.97,-1396.16 -4558.67,-4475.44 -6451.53,-4841.45 -1284,-248.28 -2124.34,738.42 -2881.77,1650.89 -2324.22,2799.96 -3034.71,5248.02 -6325.08,7379.38 -293.18,189.91 -589.15,371.71 -875.62,571.84l-676.46 472.6"/>
  <path class="fil1 str0" d="M-4.13 41734.44c778.59,388.8 720.21,1041.79 864.8,1862.18 592.2,3360.16 723.75,7038.13 2899.55,9841.59 858.89,1072.96 1950.55,1018.07 3116.28,1762.69 863.1,551.31 1709.56,1273.73 2590.01,1868.45 2420.98,1635.32 5503.69,3475.26 8476.39,2096.59 1451.68,-673.26 -393.74,-373 -886.09,-373.11 -3139.66,-0.71 -5047.73,-2475.26 -7176.33,-4470.35 -2453.57,-2295.99 -6336.17,-5894.42 -4556.92,-9656.84 858.06,-1814.44 2439.96,-1843.33 3197.48,-4235.82 248.1,-783.57 1216.25,-3999.93 1906.23,-4272.42 326.37,-128.88 1423.41,55.83 1976.95,8.26 1412.02,-121.36 3177.09,-731.47 4696.62,-964.5 3094.82,-474.6 4393.33,-605.86 7342.02,-1847.58 1282.41,-540.03 2831.3,-1306.76 4244.35,-1213.14 1362.42,90.27 2985.48,634.61 4415.48,849.43 4997.3,750.73 6996.99,622.83 11947.03,-338.42 3355.08,-651.53 6926.65,-1571.13 10278.47,-2024.41 4905.14,-663.35 7043.66,478 11272.4,2695.29 2493.39,1307.37 4692.93,2402.36 7555.37,2630.96 2917.67,201.62 4709.4,-1270.59 7450.97,-1958.85 2340.95,-587.68 4171.01,-654.97 6558.3,-477.04 1194.58,89.04 1533,-547.15 1352.78,-1669.6 -269.65,-1679.45 -2482.73,-2520.9 -3874.4,-3166.48 -2446.28,-1134.79 -7277.31,-2527.11 -8773.19,-4711.24 -1398.51,-2041.95 240.84,-3421.1 1480.35,-4933.25 920.29,-1122.72 1751.08,-2115.86 2802.11,-3129.08 1681.64,-1601.99 6596.03,-5975.42 9088.38,-4337.99 1790.72,1176.48 4096.35,4906.3 5775.43,6684.04 1130.46,1196.9 2728.59,2315.76 3979.18,3339.13"/>
  <path class="fil1 str1" d="M99995.87 58353.26c-620.32,679.04 -1320.55,1191.88 -2113.77,1439.74 -1605.84,477.71 -2311.26,389.86 -3982.52,1174.07 -3313.87,1554.98 -5981.02,3357.5 -9827.83,2218.43 -548.4,-162.39 -1209.11,-391.48 -1556.91,-871.23 380.95,-67.14 1664.55,260.31 2309.07,273.89 3517.82,74.12 5068.11,-2887.42 7937.37,-4452.69 1876.62,-1023.76 6042.12,-2844.97 5631.13,-5538.2 -374.33,-2453.03 -4076.99,-486.68 -4639.96,-2071.94 -188.3,-530.21 -503.77,-1628.15 -349.17,-2169.2 283.82,-993.29 979.63,-1386.02 -1053.44,-171.68 -2375.82,1419.06 -4262.72,1996.85 -7002.11,1294.72 -2619.08,-671.3 -5019.93,-254.59 -7740.19,-802.89 -3001.6,-605.02 -6298.94,-2168.03 -7091.16,-5413.18 -546.46,-2238.41 1179.63,-3272.82 1253.86,-4772.62 243.29,-4914.99 3921.5,-8531.51 2679.85,-13874.73 -1321.31,-5686 -7510.13,-7326.74 -12611.58,-6002.99 -6082.34,1625.05 -9828.21,5876.72 -14021.09,10190.83 -2081.08,2141.25 -3533.59,3628.12 -6516.6,4377.91 -2648.21,665.64 -3875.49,1140.66 -6315.32,2369.43 -3555.33,1790.57 -8137.41,3702.17 -12026.34,1828.7 -1366.42,-658.26 -1824.4,-957.3 -3361.92,-1339.05 -1594.95,-396.01 -4736.22,-1160.92 -6307.75,-979.4 -858.65,99.18 -1843.38,638.4 -2453.31,605.34 -1115.21,-60.46 -1500.07,-2233.33 -554.22,-3027.51 765.95,-643.12 2328.05,-456.6 3318.39,-458.95 2441.63,-5.82 6362.33,111.61 7888.68,-2158.83 827.35,-1230.67 1883.47,-3832.62 1871.74,-5329.79 -9.64,-1230.73 -662.75,-1960.59 -1426.02,-2879.16 -1465.62,-1763.84 -3682.79,-3872.83 -5379.87,-5453.94 -1379.5,-1285.22 -4751.58,-4774.28 -6729.35,-4095.46 -1643.7,564.17 -4086.22,4826.83 -5244.89,6313.53 -1545.87,1983.52 -2533.89,2485.68 -4584.77,3771.44"/>
  <path class="fil1 str0" d="M-4.13 43236.62c726.73,961.25 816.18,2551.61 1031.26,3719.96 460.36,2313.13 1671.18,6997.64 4044.05,8050.59 963.36,427.48 1239.69,295.89 2317.21,976.69 926.24,585.21 1823.1,1278.11 2778.15,1885.71 2594.13,1650.4 5325.47,2812.8 8364.48,1383.3 904.85,-448.37 3169.33,-2061.43 2962.57,-3185.23 -354.73,-39.59 -1194.2,798.07 -1585.02,1070.67 -3249.25,2266.38 -5605.94,853.61 -8189.98,-1516.79 -2297.41,-2127.85 -6279.81,-5203 -6535.18,-8514.08 -140.5,-4031.35 2600.91,-2950.78 3605.08,-6443.95 366.86,-1276.19 745.44,-2714.39 1514.47,-3828.83 386.54,-560.15 875.52,-390.55 1547.79,-382.9 1306.24,14.87 3544.1,-805.99 4999.69,-1071.75 1761.78,-321.67 3313.29,-418.93 5108.06,-874.56 1730.64,-439.36 3585.55,-1265.66 5241.57,-1578.01 1448.38,-273.19 4156.46,564.44 5709.93,819.24 4352.2,713.85 5643.87,845.32 10051.8,127.41 3447.25,-561.45 6765.58,-1352.39 10175.73,-1997.36 7103.71,-1343.55 8490.93,-271.79 14757.34,2606.75 2149.74,987.5 4112.28,1734.06 6504.79,1853.04 2847.02,110.95 4508.55,-1375.91 7178.77,-2043.58 2302.81,-575.79 4353.01,-572.49 6696.16,-337.22 1307.86,131.32 1826.12,-432.4 1865.33,-1729.33 95.39,-3155.13 -3482.52,-4009.46 -5831.03,-4840.78 -2001.13,-708.35 -5575.96,-1724.82 -6888.22,-3355 -1555.14,-1931.91 296.28,-3648.85 1506.62,-5190.73 2023.85,-2578.24 6335.54,-6965.33 9792.05,-6984.55l168.07 -0.93c1772.62,32.8 4168.49,3334.79 5222.11,4642.13 1443.75,1791.44 2607.66,3061.13 4483.51,4418.88l1402.84 1107.23"/>
  <path class="fil1 str1" d="M99995.87 58793.71c-846.35,896.67 -1860.55,1569.82 -3093.75,1795.19 -1920.57,339.81 -2052.44,335.03 -3903.94,1189.44 -3487.74,1609.49 -5825.32,2848.94 -9717.5,1328.67 -1774.24,-693.02 -3846.51,-2266.86 -5553.12,-3293.73 -243.75,-146.67 -1326.76,-778.93 -1461.62,-971.8 1048.53,262.16 3529.79,1495.97 4599.51,1989.83 3267.84,1508.66 5210.42,1968.14 8206.82,-415.21 1804.19,-1435.06 2439.06,-1987.8 4562.95,-3060.76 1531.21,-773.55 4532.79,-2369.32 4417.87,-4410.61 -131.48,-2335.55 -4429.12,-358.28 -4750.36,-2197.9 -81.68,-467.73 -99.85,-814.96 -208.15,-1314.34 -365.27,-1684.29 1055.13,-1922.91 -1813.15,-559.85 -2272.45,1079.91 -3837.84,1346.52 -6280.93,646.73 -2146.17,-614.75 -4305.21,-319.29 -6557.71,-651.76 -3414.18,-503.93 -7634.73,-2121.61 -8337.1,-5964.42 -218.03,-1192.84 -10.98,-1997.81 548.56,-3040.77 595.71,-1110.38 518,-2332.49 841.22,-3586.95 1067.28,-4142.24 3361.64,-7314.2 2228.31,-11861.6 -1731.45,-6522.96 -9203.81,-6797.57 -14393.01,-4449.55 -5469.43,2474.83 -7877.75,6334.11 -11933.16,10292.82 -4432.72,4327.03 -5474.65,3019.37 -10534.16,5036.4 -3666.08,1461.53 -7346.85,3534.44 -11439.36,3171.67 -2102.48,-186.37 -3654.61,-1520.96 -5766.09,-2077.58 -1730.77,-456.26 -4629.59,-1101.18 -6375.82,-767.74 -1967.01,375.59 -3500.61,1629.26 -3994.28,-1294.86 -534.72,-3167.29 2901.16,-3051.08 5017,-2852.38 2027.34,190.39 5548.59,316.98 6788.02,-1633.74 907.34,-1428.06 2119.98,-4656.55 1285.27,-6279.34 -1341.35,-2607.76 -8130.44,-9601.69 -10802.45,-10600.6 -1644.04,-614.61 -2602.87,389.87 -3624.05,1582.89 -2575.33,3008.73 -3011.01,4953.04 -6578.17,7433.23 -458.36,318.7 -920.02,631.18 -1377.65,951.53"/>
  <path class="fil1 str0" d="M-4.13 44832.94c607.94,1266.58 1008.05,3654.68 1386.6,4834.67 613.67,1912.93 1818.58,4887.6 3731.03,5827.47 1005.76,494.28 1542.26,471.02 2639.37,1183.78 1271.66,826.17 2952.3,1840.42 4290.58,2491.55 3664.13,1721.84 7775.92,872.77 9851.34,-2753.84 777.92,-1359.36 1062.76,-3565.19 -778.2,-1509.65 -990.19,1105.61 -1831.81,2189.7 -3330.95,2672.28 -1878.57,604.72 -3558.02,-386.39 -4991.86,-1514.76 -1896.99,-1524.88 -4794.34,-3798.78 -6109.3,-5786.47 -1519.93,-2411.5 -1889.31,-4419.34 344.86,-6531.74 2368.66,-2239.56 1484.66,-2235.01 2511.58,-4894.52 261.77,-677.92 802.25,-1944.93 1584.66,-2100.5 468.53,-93.16 1047.67,-51.18 1638.99,-167.6 1521.35,-299.51 2857.02,-898.37 4496.26,-1158.37 2144.84,-340.19 3855.06,-477.93 6010.77,-1031.39 1671.42,-429.11 3380.18,-1121.69 5131.62,-864.46 1316.05,193.28 2755.47,626.64 4100.79,892.92 4146.83,820.8 4843.28,1094.74 9153.79,471.22 4195.78,-606.93 8267.9,-1589.21 12420.36,-2273.24 6474.99,-1066.61 8118.15,-35.53 13840.9,2365.87 1987.67,834.07 3703.69,1401.08 5865.72,1620.96 3736.7,348.84 4729.39,-1351.92 8070.5,-2092.19 2586.79,-573.14 4154.33,-379.87 6714.28,-99.02 1744.25,191.36 2136.47,-1432.9 2017.58,-2845.57 -203.55,-2418.52 -2389.72,-3993.32 -4577.23,-4566.17 -2171.2,-568.58 -6957.51,-1544.85 -8213.71,-3415.17 -897.38,-1336.09 187.42,-2566.79 934.43,-3661.51 1698.48,-2489.07 3061.18,-4068.68 5547.95,-5822.98 1524.81,-1062.98 3814.23,-2418.94 5655.61,-1359.58 1856.85,1068.26 4450.98,4760.05 6148.23,6489.42 1254.29,1278.04 2561.14,2314.21 3913.45,3434.22"/>
  <path class="fil1 str1" d="M99995.87 59235.64c-913.06,938.21 -2014.94,1599.47 -3565.99,1912.06 -1741.37,352.82 -2319.43,601.9 -3955.89,1265.68 -4305.09,1746.22 -7257.19,2404.55 -11386.48,-263.36 -1411.32,-911.84 -2686.45,-1795.06 -4141.03,-2674.58 -551.4,-333.41 -6788.13,-4074.73 -6692.89,-4438.52 109.98,29.76 4046.69,2214.88 4455.6,2429.05 2410.9,1262.7 5090.41,2529.39 7618.61,3534.91 4841.91,1925.72 5914.26,-1207.28 9825.58,-3124.32 1531.99,-750.87 5880.59,-2596.13 5308.75,-4821.35 -469.25,-1826.02 -4359.24,-506.71 -4557.26,-1861.51 -91.61,-626.78 70.64,-698.24 -155.52,-1518.24 -452.81,-1641.8 -241.38,-1117.52 -2205.06,-307.28 -2250.29,928.51 -3600.45,798.3 -5873.98,161.52 -2060.29,-577.05 -4592.32,-311.92 -6832.12,-695.79 -3384.39,-580.03 -7360.08,-2368.07 -7987,-6157.95 -196.09,-1185.39 21.58,-1951.55 439.61,-3038.72 484.79,-1260.8 481.92,-2612.69 837.02,-3949.96 1030.63,-3881.35 2916.02,-6691.74 1925.81,-10953.31 -1368.78,-5890.83 -7318.26,-6910.17 -12309.01,-4959.19 -6016.55,2398.23 -8547.78,6549.49 -12813.85,10904.27 -1919.77,1959.68 -3385.1,3167.61 -6106.8,3818.13 -2626.73,627.82 -4466.17,1209.08 -6980.84,2205.74 -3522.24,1396 -8189.81,3225.15 -11881.39,1491.8 -2015.05,-946.16 -2626.76,-1353.74 -4919.52,-1861.79 -2100.92,-465.53 -3703.09,-689.64 -5793.21,-41.82 -1877.72,582 -2711.88,810.96 -3243,-1571.92 -973.24,-4366.45 3432.8,-4211.2 6368.51,-3932 1883.28,179.11 4416.67,495.85 5510.9,-1438.72 643.45,-1137.6 1365.94,-3768.64 975.95,-5054.42 -585.29,-1929.72 -4171.61,-5911.46 -5686.83,-7387.66 -1234.94,-1203.14 -4199.68,-4073.22 -6080.9,-3464.9 -1790.44,578.96 -4358.24,4825.15 -5681.02,6404.71 -1466.36,1751.02 -2601.44,2425.14 -4416.75,3689.88"/>
  <path class="fil1 str0" d="M-4.13 46319.56c583.92,1343.65 985.5,3221.19 1512.29,4548.83 723.84,1824.21 1882.64,4258.64 3740.27,5153.31 950.84,457.95 1555.1,513.51 2581.59,1131.3 737.11,443.62 1244.81,719.59 2010.72,1112.76 2403.58,1233.85 4402.98,2368.51 7255.87,1785.07 5928.05,-1321.83 7301.3,-8612.28 4491.46,-6789.42 -1762.87,1143.64 -2714.18,4345.95 -5714.66,3876.41 -385.33,-60.3 -659.06,-156.93 -1021.5,-290.49 -1206.14,-486.35 -3014.26,-2002.76 -4097.47,-2841.37 -2815.78,-2201.91 -7157.4,-6038.13 -3738.17,-9658.79 1419.39,-1503 1763.71,-1639.38 2251.78,-3734.01 312.66,-1341.84 810.03,-3329.89 2401.19,-3607.64 1237.2,-215.96 1589.7,-259.76 2808.62,-702.12 2324.65,-843.62 3683.02,-878.03 6056,-1197.76 1476,-198.87 2766.31,-468.79 4213.09,-802.35 3031.38,-698.88 3626.77,-147.43 6479.05,542.14 1264.22,305.64 2451.39,614.23 3706.76,946.15 2394.21,633.04 4843.54,202.03 7258.69,-182.34 3340.24,-531.61 6577.84,-1077.32 9901.42,-1714.11 7719.87,-1479.09 8695.65,-1034.07 15929.02,1609.02 2289.21,836.48 4369.45,1483.72 6835.42,1501.98 2799.9,-5.77 4271.25,-1557.55 6918.8,-2193.72 2345.28,-563.53 4345.76,-457.53 6695.64,-62.92 1727.53,290.1 2163.62,-748.56 2406.91,-2272.11 566.93,-3550.27 -2574.36,-6014.46 -5763.33,-6603.72 -1982.54,-366.33 -8583.02,-1202.67 -6653.1,-4575.82 1678.89,-2934.38 3627.24,-5378.7 6448.82,-7288.18 1451.77,-968.7 3429.9,-1960.14 5078.55,-880.03 1867.96,1223.79 4432.89,5074.55 6240.17,6903.64 1246.51,1261.54 2407.13,2146.39 3766.1,3238.89"/>
  <path class="fil1 str1" d="M99995.87 59647.33c-931.82,916.95 -2061.26,1613.46 -3515.88,1934.45 -1613.2,356.07 -2488.95,639.21 -4042.85,1194.2 -4652.83,1661.8 -7480.38,2099.12 -11764.73,-789.31 -4050.69,-2730.9 -8673.44,-5174.66 -12415.94,-8256.56 -107.3,-88.36 -2227.27,-1989.3 -841.53,-1030.28 1651.49,1142.94 3724.61,2384.79 5464.7,3387.06 3112.08,1792.54 6437.54,3354.3 9829.34,4542.27 4174.57,1462.13 4966.64,-809.62 8400.85,-2566.42 1352.82,-692.05 7067.12,-2788.06 5704.67,-4946.48 -905.79,-1435 -4429.21,-193.63 -4350.01,-1823.21 53.73,-1105.58 158.21,-2500.34 -1417.62,-1983.85 -2946.59,965.78 -3324.33,1191.87 -6296.11,362.53 -2338.49,-652.61 -4029.92,-364.39 -6327.62,-680.57 -3632.63,-499.87 -7924.48,-2289.49 -8789,-6265.25 -380.62,-1750.41 375.95,-3193.53 627.86,-4881.26 337.56,-2261.56 781.46,-3517.2 1487.4,-5656.5 926.84,-2808.7 1359.78,-6037.55 208.37,-8855.51 -1839.53,-4502.09 -7184.4,-4787.42 -11157.21,-3179.21 -6200.48,2561.79 -8524.55,7203.22 -12952.44,11606.51 -4044.92,4022.46 -5427.2,3073.41 -10321.21,4609.81 -3928.87,1233.41 -10259.26,4058.56 -14247.41,2347.07 -1479.93,-635.1 -2393.59,-1306.04 -4054.25,-1816.74 -2431.54,-747.77 -5035.46,-1160.99 -7450.34,-164.74 -1624.51,670.18 -2203.69,356.59 -2851.86,-1293.7 -1343.3,-3420.15 704.31,-5270.06 4054.51,-5390.03 1690.86,-60.55 5934.85,614.08 7034.39,-742.38 796.69,-982.84 1435.3,-3618.89 1093.47,-4819.97 -679.39,-2387.19 -4747.34,-6976.1 -6668.61,-8623.58 -1271.67,-1090.45 -3211.8,-2608.76 -4895.48,-1481.07 -1975.08,1322.86 -4255.27,5245.3 -6266.29,7184.65 -1033.49,996.64 -2138.79,1764.9 -3279.17,2623.36"/>
  <path class="fil1 str0" d="M-4.13 47667.98c806.74,1811.01 1247.28,3638.21 2293.18,5517.94 983.84,1768.18 1865.28,2901.46 3778.05,3616.28 1145.34,428.02 1561.99,703.93 2613.04,1257.57 793.47,417.97 1798.41,811.02 2634.85,1190.85 3763.53,1668.62 7594.41,1502.09 10318.51,-1909.49 674.63,-844.89 2872.19,-4306.46 1058.07,-4928.52 -708.82,-243.06 -2261.83,522.6 -2773.94,1041.58 -1285.31,1302.54 -1969.03,3402.88 -4326.05,2981.32l-268.4 -48c-1141.22,-252.26 -2965.03,-1598.93 -3983.55,-2303.03 -2625.56,-1827.4 -6968.92,-5401.48 -4493.24,-8945.42 1081.68,-1548.42 2106.84,-1804.46 2559.8,-3995.71 351.71,-1701.39 685.29,-3427.25 2632.47,-3908.18 971.26,-239.89 1370.67,-307.11 2341.1,-688.85 2402.76,-945.18 2937.81,-891.8 5470.24,-1176.06 2066.97,-232.01 3920.14,-594.18 5951.18,-912.41 1910.84,-299.4 3778.65,557.63 5619.76,1068.94 1205.45,334.77 1977.97,578.67 3148.65,1039.55 1946.7,766.39 4476.04,299.85 6502.38,-21.02 2045.97,-323.99 4043.24,-641.56 6095.79,-942.86 3083.75,-452.69 6221.55,-1130.41 9280.93,-1511.54 3976.93,-495.43 6510.71,243.51 10279.66,1477.46 3027.93,997.06 7832.87,2546.53 10890.12,1225.63 2142.33,-925.61 3025.33,-1688.62 5546.03,-2015.65 2012.37,-261.07 3532.39,3.75 5488.92,359.58 1776.41,323.06 2243.48,-1049.31 2506.63,-2518.1 665.91,-3716.74 -2287.22,-6745.96 -5764.9,-7475.09 -1501.06,-314.72 -6470.4,-614.85 -6531.22,-2676.46 -19.19,-650.65 961.37,-2355.04 1320.81,-2995.95 244.73,-436.37 490.39,-810.39 780.19,-1217.87 1560.17,-2146.74 5672.76,-6012.7 8569.23,-4609.94 2213.07,1071.79 5127.83,5309.7 7002.25,7265.19 1202.7,1254.73 2155.19,1986.14 3459.46,3095.9"/>
  <path class="fil1 str1" d="M99995.87 60033.38c-970.08,914.63 -2124.69,1620.37 -3584.27,1975.38 -5667.75,1402.17 -10039.24,3955.2 -15543.26,243.51 -1618.15,-1091.21 -3086.61,-2068.28 -4754.58,-3095.48 -3115.82,-1918.84 -8347.41,-5262.56 -10692.5,-7994.48 -460.71,-536.7 -609.51,-813.99 145.48,-269.98 5948.85,4286.51 9996.72,6850.08 17078.34,9142.07 3880.73,1256 4414.91,-413.62 7720.16,-1917.72 1305.18,-593.95 6597.36,-2486.88 5995.76,-4443.24 -455.32,-1480.66 -3773.97,-778.15 -4272.74,-1629.72 -377.1,-643.85 1162.9,-3014.59 -1929.49,-2262.88 -2780.39,675.87 -2830.84,805.36 -5563.1,-47.93 -2082.54,-650.38 -3736.16,-419.8 -5855.41,-663.49 -3953.46,-454.61 -8713.41,-2394.08 -9396.45,-6840.88 -234.79,-1528.52 290.41,-2975.76 490.67,-4477.95 279.92,-2099.77 607.06,-3154.74 1230.62,-5144.49 771.63,-2462.21 992.44,-4410.25 692.75,-6987.31 -365.36,-3141.7 -1837.72,-5328.78 -5100.98,-5909.95 -6028.76,-991.98 -11054.56,3723.77 -14537.12,8035.15 -2233.72,2765.32 -5263.57,7045.68 -8809.88,8048.69 -1422.72,402.39 -3044.34,570.51 -4544.37,946.61 -3474.86,871.23 -7341.31,2353.33 -10824.03,2773.69 -2355.52,284.32 -3844.96,134.79 -5934.52,-997.8 -2140.84,-1160.39 -3691.88,-1829.64 -6169.27,-2043.29 -1939.94,-167.3 -2897.55,153.02 -4648.86,847.64 -1543.59,612.24 -2140.95,-715.9 -2597.35,-1945.54 -1231,-3316.54 574.9,-5665.84 3977.4,-6043.78 1441.8,-160.15 5307.31,163.98 6363.8,-641.63 741.04,-565.07 1127,-2482.51 1170.28,-3381.05 96.69,-2007.37 -3673.89,-6831.27 -5108.31,-8258.52 -1119.81,-1114.2 -3075.89,-2900.21 -4770.53,-2400.01 -1609.36,475.02 -3783.33,3585.41 -4863.99,4951.47 -1862.66,2354.58 -3009.41,3435.05 -5364.25,5307.54"/>
  <path class="fil1 str0" d="M-4.13 48836.85c1279.05,2774.49 2552.05,6761.96 5379.17,8076.91 910.34,423.41 1590.16,612.43 2528.4,1128.53 1149.32,632.22 1804.01,861.47 3024.86,1317.37 3138.63,1172.07 6000.7,1715.77 8970.37,-292.13 1604.71,-1123.39 3890.26,-3867.83 3753.06,-5918.65 -88.42,-1321.53 -1304.06,-1406.42 -2329.09,-1082.52 -1024.43,323.72 -1155.64,44.07 -1712.52,185.85 -505.49,128.71 -1018.15,1221.91 -1367.99,1696.64 -2070.05,2808.99 -3972.06,1526.8 -6451.83,-4.35 -2964.04,-1830.17 -7202.77,-5106.03 -4314.6,-8885.44 1366.46,-1788.12 1794.36,-1756.58 2205.6,-4175.96 320.46,-1885.26 872.55,-2974.96 2801.26,-3504.6 1680.84,-461.59 2861.51,-1213.31 4703.4,-1574.74 1970.92,-386.76 4106.9,-425.18 6155.14,-762.51 2370.91,-390.48 3423.93,-567.99 5722.62,299.75 1740.78,657.13 3362.3,1057.9 5000.34,1990.73 1369.46,779.88 2547.39,625.31 4053.06,446.8 2064.56,-244.76 4226.59,-751.27 6322.61,-1060.41 2402.78,-354.37 4760.09,-600.78 7176.23,-988.02 7667.34,-1228.88 8592.13,-1451.72 16172.49,680.22 2633.8,740.74 5009.75,1356.69 7778.92,1207.61 2220.25,-138.54 3610.36,-1528.49 5727.47,-2187.29 2537.21,-789.53 4770.73,-549.23 7308.35,11.03 1840.32,406.3 2345.04,-817.8 2718.07,-2381.31 996.38,-4176.27 -2091.8,-7807.29 -6078.21,-8729.48 -1373.84,-317.82 -4719.93,-352.96 -5339.69,-1719.19 -306.14,-674.85 323.05,-1871.35 620.09,-2509.06 1026.68,-2204.18 2331.58,-3764.26 4348.64,-5127.41 1524.48,-1009.43 3187.53,-1732.67 4897.51,-730.23 2174.96,1275.03 4965.63,5326.1 6823.96,7350.77 1176.41,1281.72 2142.1,2217.16 3402.31,3394.8"/>
  <path class="fil1 str1" d="M99995.87 60442.04c-963.6,877.84 -2089.1,1564.68 -3477.42,1928.89 -5819.69,1536.65 -10469.45,3592.59 -15982.92,-276.47 -1574.28,-1104.75 -2950.3,-1963.59 -4588.69,-2959.12 -3850.83,-2339.87 -8950.75,-5711.03 -11761.33,-9242.48 -83.63,-105.07 -960.96,-1241.4 -246.61,-722.69 1196.18,868.59 2376.02,1879.66 3593.98,2775.98 4516.13,3323.55 10153.56,6455.33 15688.08,7579.12 3197.95,649.35 4472.41,-800.78 7302.85,-1859.63 1052.84,-393.85 6540.2,-2232.26 4874.94,-4052.27 -1032,-1127.89 -4207.34,-221.42 -3804.63,-1851.64 222.38,-900.21 526,-1743.78 -831.56,-1744.29 -1628.61,-0.6 -2824.36,732.13 -4663.62,337.83 -980.45,-210.19 -1708.18,-634.46 -2806.32,-835.29 -2269.82,-415.11 -4373.58,-185.84 -6770.28,-787.95 -4389.08,-1102.64 -8181.48,-3966.2 -7423.04,-8955.69 145.98,-960.34 305.4,-1874.3 442.05,-2847.07 235.77,-1678.41 540.54,-2601.95 1013.82,-4207.38 864.24,-2931.67 523.5,-4024.39 364.51,-6948.61 -154.25,-2837.1 -1201.87,-4881.57 -4125.98,-5649.36 -4984.89,-1221.16 -9880.45,2552.86 -12889.85,6139.68 -2761.17,3290.96 -5885.28,9059.13 -10129.59,10275.81 -1251.85,358.86 -2973.48,511.18 -4322.18,784.01 -3097.55,626.6 -6117.43,1564.02 -9172.11,2174.6 -2389.17,477.55 -5400.71,840.16 -7650.18,-280.57 -1658.08,-826.1 -2444.98,-1403.84 -4327.65,-1908.24 -2612.89,-700.03 -4043.73,-603.52 -6530.22,306.94 -1763.32,645.66 -2465.85,355.94 -3206.27,-1478.49 -1712.28,-4242.29 378.53,-7163.76 4808.83,-7613.31 976.52,-99.09 3968.8,-226.55 4592.98,-970.17 521.43,-621.22 883.82,-2600.44 688.61,-3380.49 -299.49,-1196.78 -1940.16,-4190.09 -2683.24,-5222.07 -1142.82,-1587.11 -3815.02,-5039.92 -6079.04,-3796.03 -1883.19,1034.66 -4575.78,5395.9 -6261.72,7239.18 -1131.41,1237.01 -2362.18,2247.3 -3636.2,3325.29"/>
  <path class="fil1 str0" d="M-4.13 49834.04c1315.5,2619.17 2829.94,6482.75 5630.4,7641.18 981.4,405.97 1479.87,456.34 2506.91,1023.51 1384.77,764.72 2075.72,949.62 3582.5,1403.73 4908.07,1437.77 8859.15,238.44 11407.81,-4374.96 691.47,-1251.64 1615.23,-3581.12 -516.58,-3992.02 -1072.23,-206.67 -1463.23,529.36 -2752.11,103.92 -2125.86,-701.71 -1336.64,-198.17 -2086.3,1059.52 -1447.77,2428.92 -2948.48,2275.49 -5332.97,1113.2 -2341.54,-1141.35 -6763.87,-4226.1 -5287.51,-7330.53 978.54,-2057.64 2370.15,-2432.17 2734.05,-5169.46 293.51,-2207.74 679.7,-2981.63 2852.94,-3756.1 2279.55,-812.37 2897.07,-1459.32 5543.46,-1787.22 1673.68,-207.38 3315.55,-267.42 5012.39,-492.81 3615.68,-480.27 4144.03,-146.7 7418.62,1277.74 1278.1,555.97 1841.52,857.15 2978.72,1658.36 1201.43,846.47 1989.22,784.29 3403.45,589.68 1880.5,-258.78 3920.06,-807.07 5838.46,-1139.2 2957.67,-512.06 5963.75,-693.31 8952.64,-1105.05 3220.48,-443.65 6499.07,-1119.83 9750.35,-808 4796.89,460.06 9247.6,2530.85 14097.79,2167.7 2247.19,-186.73 3635.54,-1659.56 5827.55,-2323.35 2508.84,-759.72 4648.75,-430.5 7130.21,155.26 1930.75,455.76 2478.84,-1059.99 2843.61,-2658.79 943.79,-4136.58 -1840.18,-7960.51 -5673.12,-9357.88 -1209.37,-440.9 -2231.08,-544.74 -3415.03,-862.74 -1775.62,-476.91 -1648.64,-1351.25 -1112.48,-2859.72 768.88,-2163.22 2406.83,-3891.64 4408.83,-4973.67 2727.08,-1429.34 4453.63,-133.99 6361.21,1856.27 1916.34,1999.39 3627.86,4427.89 5524.9,6533.61 824.16,914.83 1520.06,1593.93 2369.3,2482.15"/>
  <path class="fil1 str1" d="M99995.87 60857.96c-1052,936.85 -2279.72,1657.82 -3809.41,1998.7 -1052.75,234.59 -1832.39,422.96 -2870.56,738.2 -4373,1303.16 -8725.63,1377.91 -12604.5,-1305.31 -1458.44,-1008.87 -2702.52,-1849.49 -4226.02,-2774.32 -4524.34,-2746.47 -9174.5,-5721.59 -12595.07,-9841.05 -151.49,-182.44 -1168.73,-1447.48 -1017.92,-1684.16 128.22,5.75 2647.71,2112.28 2907.4,2315.65 3094.44,2423.35 7321.42,5189.24 10945.45,6685.02 2689.78,1110.18 6683.57,2404.84 9581.32,1695.77 1192.21,-291.73 2567.83,-831.36 3770.67,-1221.29 897.28,-290.87 5704.42,-1827.77 4875.64,-3283.15 -628.85,-1104.28 -4535.78,-594.05 -3905.7,-2209.31 284.71,-729.89 756.24,-1562.98 -579.22,-1631.44 -1355.73,-69.5 -2551.28,406.2 -4124.86,176.6 -1627.56,-237.49 -2400.62,-985.81 -4377.23,-1100.27 -4127.3,-239.01 -8756.22,-660.7 -11593.06,-4120.49 -1398.35,-1705.44 -1776.34,-3428.63 -1564.24,-5584 213.28,-2167.27 419.5,-3775.25 966.04,-5902.5 543.46,-2115.25 954.93,-3419.38 469.8,-5621.35 -289.2,-1312.65 -230.18,-1543.03 -231.8,-2864.12 -5.86,-4757.61 -4388.57,-5839.73 -8248.78,-4542.04 -6081.04,2101.85 -8263.75,6792.28 -11728.03,11627.66 -1817.04,2536.19 -3827.57,4772.56 -7065.56,5227.79 -1383.33,194.48 -2667.85,307.5 -4070.01,546.39 -3011.04,513 -5940.92,1282.13 -8911.86,1798.39 -2266.25,393.8 -5087.28,716.74 -7230.98,-271.84 -2083.06,-960.61 -3215.92,-1938.52 -5642.74,-2453.55 -3674.58,-779.83 -5622.54,1134.12 -6901,953.42 -1722.49,-243.44 -2562.26,-4044.2 -2427.52,-5473.35 273.02,-2895.85 2531.24,-4441.04 5188.3,-4986.1 844.38,-173.21 3383.9,-481.68 3891.36,-1158.45 435.42,-580.7 683.55,-2133.58 524.39,-2845.45 -256.72,-1148.2 -1047.69,-2996.11 -1671.01,-3999.1 -1019.4,-1640.35 -3332.2,-4727.75 -5586.37,-3781.45 -2191.09,919.82 -4872.73,5042.66 -6530.91,6964.28 -1141.52,1322.89 -2353.36,2533.92 -3606.01,3749.21"/>
  <path class="fil1 str0" d="M-17.79 50694.13c1270.18,2291.8 2976.6,5922.76 5421.5,7095.88 987.51,473.84 1892.09,654.77 2922.19,1173.34 1425.2,717.47 2139.06,892.77 3694.36,1250.36 5007.02,1115.89 8661.22,-168.6 11267.61,-4736.22 670.96,-1175.84 1589.08,-3282.79 -102.01,-4090.39 -1298.72,-620.22 -2033,418.38 -3385.64,-99.58 -461.17,-176.59 -2453.11,-1144.85 -2769.39,-783.3 -285.26,326.09 552.83,981.24 -765.82,2284.8 -2561.64,2532.35 -8957.71,-1776.65 -8917.75,-4947.58 16.94,-1343.81 1258.97,-2547.95 1941.11,-3732.75 722.39,-1254.71 816.12,-2044.26 990.46,-3445.53 300.27,-2413.38 2052.91,-2653.86 3994.9,-3586.11 2796.6,-1342.5 4852.67,-1247.99 7874.78,-1352.69 1171.25,-40.58 2436.79,-130.51 3590.49,-146.71 1431.2,-20.1 3245.8,910.64 4550.89,1520.6 1310.58,612.52 1939.94,985.5 3014.45,1954.67 1167.6,1053.15 1675.24,956.3 3219.08,682.69 2530.62,-448.5 4837.7,-1200.89 7456.4,-1560.89 2508.29,-344.82 5086.02,-398.62 7633.72,-692.45 2181.46,-251.6 4384.11,-593.87 6552.35,-827.12 1772.65,-190.69 3259.9,-184.92 5035.96,1.29 3668.04,403.55 11057.38,2523.7 14330.71,1161.93 1660.58,-690.83 2575.85,-1580.87 4514.29,-2081.44 2400.63,-619.92 4305.75,-301.68 6647.59,301.24 1943.46,500.35 2514.39,-944.75 2949.71,-2566.96 974.82,-3632.63 -898.59,-7341.58 -3830.67,-9482.57 -1413.78,-1006.21 -2670.16,-1462.99 -4262.13,-2051.89 -1341.09,-496.1 -1348.59,-1189.35 -971.84,-2468.52 754.1,-2560.36 3881.73,-5406.64 6677.55,-4221.75 2683,1137.08 5989.9,6063.7 7918.18,8438.45 977.52,1203.84 1808.19,1987.38 2820.63,3152.22"/>
  <path class="fil1 str1" d="M99995.87 61233.88c-1100.29,953.45 -2383.56,1692.83 -4021.19,2074.89 -1055.27,246.2 -2036.21,484.83 -3086.82,748.64 -3926.1,961.56 -8343.55,919.01 -11789.32,-1434.81 -1391.97,-950.85 -2562.45,-1819.66 -4025.89,-2708.15 -5192.39,-3152.43 -10072.17,-6132.42 -13867.45,-11026.81 -168.83,-217.72 -1355.17,-1832.79 -1203.08,-2097.44 49.63,-86.35 2666.28,2278.55 2828.12,2417.41 1866.05,1601.16 4319.7,3208.35 6405.27,4531.63 4710.54,2988.78 10461.02,5279.61 16107.68,4072.67 872.88,-186.57 7619.82,-1755.81 6612.72,-3319.91 -616.64,-957.69 -4190.86,-624.97 -3593.75,-2163.31 451.15,-1162.29 1099.4,-1753.79 -900.12,-1674.05 -2391.73,95.39 -2732.25,411.05 -5058.53,-595.09 -1770.71,-765.84 -4491.55,-611.45 -6510.87,-945.7 -5008.79,-829.07 -9801.1,-3711.92 -9410.16,-9419.3 181.59,-2651.14 620.19,-4826.43 1173.2,-7401.4 860.49,-4006.75 -920.13,-3957.05 -649.57,-6676.61 147.68,-1484.36 169.07,-2669.62 -1049.54,-3797.32 -2736.82,-2382.36 -7169.78,-734.92 -9754.54,1088.57 -3880.93,2737.9 -5438.39,6286.63 -7873.34,10102.29 -1741.56,2729.08 -3753.75,5245.43 -7188.36,5562.06 -1505.61,138.8 -2881.65,209.15 -4404.8,403.79 -3072.65,392.64 -6085.64,1085.44 -9113.98,1465.17 -1806.42,226.51 -4993.23,432.42 -6633.03,-370 -2382.06,-1165.65 -3509.47,-2351.13 -6391.11,-2773.89 -2017.84,-296.03 -3352.88,86.36 -5165.46,903.92 -1812.12,817.36 -2333.82,-123.97 -3089.78,-1749.07 -2023.36,-4349.66 -207.16,-8105.93 4327.46,-9494.6 706.54,-216.37 2708.69,-666.37 3131.52,-1224.27 510.61,-673.73 514.95,-1884.67 388.78,-2689.05 -341.72,-2178.55 -1618.26,-4499.09 -3317.14,-5906.03 -2571,-2129.19 -4643.3,587.47 -6223.4,2524.49 -1521.73,1865.46 -2874.61,3741.04 -4452.11,5597.17 -730.01,858.95 -1460.04,1716.21 -2201.41,2565.46"/>
  <path class="fil1 str0" d="M-4.13 51604.68c1339.58,2216.38 3251.02,5638.59 5701.19,6728.74 993.85,442.19 1991.22,719.13 3024.8,1188.88 1655.58,752.45 3596.5,1047.89 5398.49,1181.72 4609.03,291.42 7994.14,-2129 9831.09,-6282.49 600.57,-1357.94 679.13,-2780.44 -970,-3390.98 -1249.86,-462.71 -1777.14,554.12 -3294.83,-80.38 -528.88,-221.11 -3450.67,-1601.59 -3800.47,-1476.63 -638.15,227.97 856.53,1746.27 -907.36,2742.25 -2484.49,1402.85 -8011.96,-1792.66 -6857.32,-5209.51 652.63,-1931.3 2071.4,-2537.89 2377.7,-5179.82 174.24,-1502.86 92.33,-2424.44 1500.85,-3367.2 1103.29,-738.45 3623.24,-1878.79 4923.32,-2178.38 2491.72,-574.19 5872.03,-285.74 8479.46,-345.75 1576.03,-36.28 3105.65,829.23 4470.09,1569.58 1698.5,921.61 1988.41,1233.61 3232.75,2642.85 906.74,1026.9 1572.81,836.17 2861.49,574.15 1694.86,-344.61 3545.96,-989.42 5287.09,-1391 3587.56,-827.44 7239.96,-718.83 10886.27,-1062.56 2121.88,-200.02 4146.87,-475.75 6252.64,-724.95 1362.65,-161.25 2590.86,-234.29 3965.28,-189.96 4393.36,167.34 9560.97,1667.24 13816.88,1115.88 2352.46,-304.77 3599.9,-1832.08 5947.64,-2481.01 2391.85,-661.13 4378.26,-224.91 6706.52,355.29 1751.99,436.6 2293.51,-722.01 2820.45,-2200.91 1322.84,-3712.72 -636.42,-7641.49 -3117.14,-10366.78 -1164.88,-1261.44 -2460.1,-2394.11 -3768.88,-3501.51 -994.47,-841.45 -345.9,-2669.61 415.83,-3509.49 1363.69,-1503.56 3013.65,-1471.25 4658.21,-456.07 3431.75,2118.4 6868.94,7808.2 9579.49,11032.72 246.43,293.17 340.9,419.85 578.47,721.83"/>
  <path class="fil1 str1" d="M99995.87 61590.32c-1168.05,985.37 -2526.25,1748.12 -4330.45,2187.45 -4178.46,1015.1 -7901.47,1708.76 -12094.25,182.7 -2234.88,-813.43 -4128.84,-2519.55 -6168.71,-3782.53 -5615.25,-3476.64 -10288,-6122.37 -14421,-11527.15 -410.18,-536.39 -1599.04,-2174.9 -1643.12,-2852.34 -16.61,-255.25 740.04,562.93 821.8,640.55 1970.08,1870.47 3228.09,3051.85 5542.11,4583.16 5272.64,3489.21 9312.99,6266.47 15922.49,6492.2 2407.74,82.24 6471.92,-397.42 8487,-1744.23 2001.03,-1337.42 -1154.09,-1660.58 -1994.23,-2028.33 -1520.29,-665.46 -19.65,-1580.23 42.07,-2304.97 54.41,-638.95 -2243.38,-419.97 -2715.17,-436.28 -2055.19,-71.05 -2908.47,-989.02 -4853.09,-1320.57 -1996.96,-340.48 -3777.93,-289.44 -5860.66,-769.47 -4857.68,-1119.59 -8824.04,-4013.79 -8551.98,-9448.72 108.05,-2158.49 395.03,-4106.12 786.14,-6223.35 350.81,-1899.12 562.36,-3445.29 -533.93,-5146.82 -1339.67,-2079.29 -40.14,-2310.83 -309.21,-4279.62 -333.87,-2443.03 -3081.13,-2987.58 -5142.73,-2668.9 -5271.54,884.69 -8741.66,5613.9 -11100.73,10020.12 -1717.42,3207.76 -3908.62,7927.25 -8012.71,8356.04 -1151.8,120.34 -2457.06,50.79 -3666.08,134.3 -3333.77,230.27 -6420.95,738.78 -9708.21,1109.79 -2085.87,235.41 -5720.1,536.05 -7607,-367.1 -2351.76,-1125.66 -3386.82,-2437.77 -6271.32,-2858.33 -1886.43,-275.04 -3180.45,28 -4875.32,822 -1742.23,816.19 -2289.39,532.85 -3241.88,-1229.46 -2030.92,-3757.63 -1322.44,-7487.89 2019.29,-10169.6 1175.54,-943.36 2164.8,-1361.57 3361.67,-2146.72 719.84,-472.22 754.27,-904.42 867.58,-1737.55 285.9,-2102.28 -570.92,-4387.03 -2351.23,-5617.39 -2153.74,-1488.44 -4286.88,1029.67 -5563,2536.52 -1470.17,1735.98 -2961.8,3842.13 -4325.92,5691.84 -843.67,1143.99 -1668.91,2301.74 -2508.22,3449.06"/>
  <path class="fil1 str0" d="M-4.13 52435.6c1463.75,2214.92 3450.82,5299.91 5967.66,6399.78 961.17,420.03 2088.88,781.22 3099.89,1193.96 1708.86,697.65 4002.08,835.95 5826.77,832.17 4306.58,-60.95 7399.62,-2604.68 9211.82,-6383.49 691.71,-1442.34 793.26,-2915.04 -943.76,-3624.64 -1317.47,-538.22 -1966.4,500.8 -3514.13,-145.26 -883.2,-368.67 -3014.6,-1344.43 -3682.88,-1944.83 -506.11,-454.69 -782.79,-615.04 -1013.96,290.27 -236.07,924.47 234.29,1758.91 -1100.88,2306.03 -2239.45,917.68 -6068.27,-1375.35 -4848.36,-4494.4 902.49,-2307.45 1682.56,-2870.05 1950.85,-5606.14 221.04,-2254.33 1429.66,-2681.55 3243.5,-3693.87 2787.85,-1555.92 4566.25,-1520.16 7697.95,-1422.46 1244.1,38.81 3982.26,110.41 5071.04,488.16 1432.8,497.12 3891.35,1967.92 4848.15,3162.82 567.7,708.97 1162.59,2056.6 2084.53,2121.79 1019.11,72.06 5428.72,-1427.76 6779.71,-1768.54 3856,-972.66 7389.32,-788.58 11306.34,-1045.71 2327.76,-152.8 4357.35,-324.1 6674.77,-645.01 2850.12,-394.68 4892.2,-315.42 7735.87,-46.06 3186.45,305.58 8806.05,1146.39 11699.92,-182.53 1845.07,-847.29 2595.09,-1737.74 4841.38,-2175.55 2064.54,-402.38 3848.3,-47.38 5834.56,496.98 1701.65,466.36 2162.87,-357.27 2804.27,-1818.59 1737.25,-3958.01 -453.57,-8480.94 -2561.22,-11837.49 -500.71,-792.53 -2679.42,-3956.1 -2759.87,-4680.52 -139.69,-1257.79 967.08,-2306.14 2313.27,-1879.13 3260.52,1034.22 7784.72,7876.32 9793.19,10755.61 428.23,613.91 959.85,1168.8 1417.33,1785.21l222.29 299.52"/>
  <path class="fil1 str1" d="M99995.87 61926.14c-1826.04,1520.06 -3768.14,2281.14 -7419.25,2899.56 -4144.45,673.59 -8582.47,62.11 -12040.24,-2438.54 -1669.33,-1207.24 -3088.02,-2126.7 -4843.5,-3200.68 -5439.35,-3327.74 -10102.41,-6445.33 -13705.62,-11884.65 -284.28,-429.15 -1303.65,-2044.19 -1216,-2561.79 78.8,-33.71 1037.74,1011.98 1152.4,1129.65 1817.45,1865.28 3316.02,3317.21 5565.66,4692.63 3874.19,2368.68 6295.03,4368.5 10850.25,5641.72 3374.7,943.25 7919.94,1239.04 11250.86,8.19 1498.57,-553.76 1731.46,-1144.69 140.3,-1893.76 -792.18,-372.94 -1481.56,-614.66 -936.64,-1586.37 689.1,-1228.8 757.72,-1304.22 -783.78,-1398.68 -2221.2,-136.1 -2011.03,-193.01 -3928.7,-1069.86 -1678.07,-767.29 -4133.41,-705.15 -6034.95,-1036.9 -5429.21,-947.19 -10233.88,-3662.63 -10159.78,-9820.82 27.12,-2253.07 403.44,-4344.09 691.3,-6554 307.3,-2359.12 106.57,-3191.29 -1277.09,-5081.58 -1244.1,-1699.63 -606.42,-1504.33 -182.11,-3126.03 454.87,-1738.46 -1011.34,-2882.01 -2565.96,-3092.08 -5349.85,-625.78 -9999.29,4981.46 -12168.71,9259.36 -1880.56,3708.3 -3813.1,9848.19 -8896.41,9812.22 -1609.66,-11.39 -3014.1,-119.45 -4660.98,-53.28 -3078.98,123.72 -6022.41,524.5 -9063.07,720.83 -1985.6,128.21 -5262.94,253.63 -7051.73,-601.84 -2337.17,-1117.72 -3629.51,-2499.28 -6470.43,-2848.1 -3044.65,-373.83 -4908.84,1504.14 -6153.83,1290.1 -1398.52,-240.45 -2563.51,-3365.37 -2788.74,-4633.46 -831.25,-4680.13 2492.43,-8573.72 4691.73,-12349.9 1022.27,-1755.23 625.96,-6124.1 -2847.7,-3550.39 -3249.37,2407.52 -6910.38,8387.84 -9147.28,11917.63"/>
  <path class="fil1 str0" d="M-4.13 53093.39c1592.98,2205.09 3622.35,5098.78 6202.61,6211 963.58,415.34 2213.5,837.16 3224.36,1214.01 1647.11,614.05 3537.98,500.93 5269.99,469.62 4468.83,-126.4 7509.1,-2500.37 9507.42,-6401.21 771.7,-1506.39 964.57,-2977.88 -806.82,-3843.24 -1456.44,-711.5 -2204.49,435.11 -3735.81,-229.16 -861.89,-373.87 -2997.82,-1370.2 -3480.24,-2144.96 -630.89,-1013.17 -786.43,-2247.04 -1661.93,-97.69 -440.33,1081.02 -651.52,2107.06 -2136.91,2170.84 -1741.46,74.78 -3142.25,-1474.12 -2683.98,-3271.01 423.78,-1661.7 1231.22,-2928.58 1575.87,-4798.64 393.09,-2132.92 -56.53,-2547.78 1971.14,-3901.07 3241.05,-2163.12 4641.98,-2376.53 8529.32,-2129.22 1235.69,78.62 4267.98,356.33 5335.63,782.63 1597.31,637.78 3391.98,1858.53 4397.45,3280.08 498.78,705.19 629.57,1140.04 1008.71,1845.4 633.11,1177.88 1771.67,587.32 2815.89,260.39 3140.39,-983.21 5199.7,-1865.78 8599.54,-2230.06 2435.69,-260.97 5003.44,-178.43 7476.71,-302.97 2476.58,-124.7 4810.76,-173.35 7274.12,-565.75 2596.88,-424.77 4043.57,-516.43 6680.5,-414.88 3410.38,131.35 9717.47,892.63 12749.01,-453.33 1974.16,-876.5 2873.25,-1914.37 5278.88,-2253.84 2103.26,-296.8 3491.76,216.85 5459.97,681.96 1782.24,421.17 2334.42,-590.44 2914.25,-2083.6 1865.3,-4803.52 -1246.24,-10399.35 -2790.99,-14910.87 -188.02,-555.77 -653.82,-1728.14 -393.94,-2278.78 435.69,-923.16 1531.86,29.62 2015.03,427.24 2584.73,2127.1 5679.54,6875.62 7527.64,9768.99 528.4,827.25 1116.15,1376.22 1694.23,2138.16l182.35 240.35"/>
  <path class="fil1 str1" d="M99995.87 62242.28c-2006.36,1615.94 -4084.08,2469.54 -7699.03,2986.79 -3719.95,497.4 -8505.77,-450.35 -11590.82,-2633.39 -1204.87,-852.59 -2200.15,-1634.2 -3475.45,-2427.85 -5972.66,-3716.95 -10585.88,-6239.22 -14812.71,-12188.57 -612.47,-862.05 -2010.98,-2983.18 -2118.02,-4043.7 -42.99,-425.88 695.92,593.05 807.11,709.22 1805.36,1886.28 3500.77,3922.74 5850.02,5176.45 862.65,460.37 2127.78,1319.01 2964.79,1883.16 3459.24,2331.54 6358.82,3879.27 10554.43,4526.42 2041.63,314.91 5826.61,518.4 7688.91,-440.32 1516.68,-780.79 -1459.15,-1290.54 -435.2,-2858.88 683.9,-1047.5 1182.02,-1081.45 -650.98,-1339.92 -1809.82,-255.2 -1849.66,-577.75 -3354.71,-1288.91 -1518.72,-717.62 -4511.05,-772.12 -6341.27,-1155.02 -5587.61,-1168.98 -9959.87,-4198.47 -9828.32,-10405.49 44.25,-2088.09 453.45,-4078.79 571.99,-6110.12 160.73,-2754.09 -682.43,-3640.97 -2513.15,-5493.32 -829.75,-839.55 -242.76,-1225.89 245.28,-2167.91 582.78,-1124.87 288.37,-2045.55 -862.75,-2646.18 -2945.99,-1400.91 -7012.6,1541.68 -8962.64,3601 -3060.93,3232.48 -4004.72,6651.78 -5848.78,10501.81 -1299.09,2712.26 -3205.31,5382.25 -6540.24,5317.39 -1515.29,-29.48 -3004.26,-324.02 -4605.66,-346.36 -4035.71,-56.32 -8077.46,492.34 -12044.22,378.88 -3842.52,-109.91 -3881.05,-539.28 -6993.74,-2353.1 -6234.5,-3632.96 -8651.57,994.34 -10470.52,-264.66 -1356.97,-939.23 -2408.91,-4281.7 -2535.97,-5913.4 -296.27,-3804.79 1928.34,-7491.43 3265.12,-10963.77 341.37,-886.73 1065.84,-2495.75 529.18,-3420.35 -1108.42,-1909.7 -6447.41,5807.41 -6933.51,6525.19 -1002.14,1479.8 -1706.23,2689.18 -2544.74,4248.69 -424.54,789.58 -871.88,1568.62 -1314.4,2348.38"/>
  <path class="fil1 str0" d="M-4.13 53792.1c1667.25,2103.08 3782.98,4822.28 6315.1,5918.34 919.56,398.05 3681.42,1413.47 4594.28,1535.84 1214.76,162.83 2788.01,-53.77 4022.78,-132.03 4428.28,-323.38 7361.63,-2658.23 9410.11,-6511.55 843.68,-1587 1014.06,-3073.87 -834.09,-4000.08 -1460.66,-732.01 -2420.72,335.4 -3722.49,-220.88 -798.61,-341.27 -2836.2,-1389.37 -3265.02,-2110.92 -434.08,-730.4 -568.11,-2032.91 -849.77,-2412.06 -416.27,-560.35 -1300.13,1341.48 -1493.35,1693.45 -509.51,928.14 -1287.16,1838.95 -2473.6,1479.77 -1939.07,-587.03 -588.51,-3801.06 -228.93,-5120.45 298.27,-1094.41 376.68,-1820.64 552.46,-2912.78 231.44,-1437.89 1340.06,-2275.72 2496.82,-3020.57 2566.29,-1652.46 5618.45,-1574.4 8551.04,-1235.82 1084.64,125.23 2494.96,372.09 3551.58,646.53 1465.26,380.58 3413.74,1862.25 4282.9,3119.16 558.2,807.22 792.68,1431.71 1122.06,2339.14 650.32,1791.6 1945.2,898.71 3318.12,374.38 5191.72,-1982.77 7284.91,-2265.43 12819.6,-2305.31 2249.51,-16.21 4596.06,-135.81 6854.73,-214.96 1635.92,-57.33 3031.14,-195.56 4644.98,-486.11 2327.23,-427.55 3742.6,-508.8 6099.3,-504.41 3250.74,6.07 9741.94,439.81 12530.89,-979.31 2299.02,-1169.82 3093.87,-2193.23 5954.59,-2365.65 1731.19,-104.35 2966.87,277.7 4591.65,748.53 1774.93,514.35 2321.32,-575.56 2935.65,-2073.88 1899.33,-4632.36 -681.07,-10306.46 -1677.58,-14920.76 -502.72,-2379.17 450.76,-1666.48 1584.06,-428.85 2099.71,2293.03 4455.23,6126.11 6016.97,8858.44 575.92,1007.6 723.52,1145.92 1557.36,1922.83 217.64,202.79 554.83,629.6 737.8,849.79"/>
  <path class="fil1 str1" d="M99995.87 62598.61c-2068.74,1619.9 -4141.9,2486.28 -7781.48,2984.98 -3238.13,405.7 -8133.27,-735.26 -10869.96,-2492.57 -1460.81,-938.04 -2762.09,-2015.36 -4284.8,-2964.35 -6468.12,-4031.07 -11527.12,-6868.07 -15649.78,-13652.55 -370.2,-609.22 -1624.18,-2833.3 -1553.66,-3533.86 30.4,-301.99 692.94,680.21 774.05,781.35 1509.47,1882.23 3606.54,4244.61 5723.74,5375.25 912.06,487.06 1960.67,1224.48 2891.24,1774 614.03,362.6 2410.29,1269.45 2789.28,1609.38 2088.24,1872.99 6557.35,3139.22 9340.59,3336.3 1015.6,71.91 3650.48,163.37 4299.49,-709.69 386.15,-519.45 249.83,-1330.44 827.39,-2221.6 627.51,-968.24 -244.91,-963.82 -1044.74,-1267.62 -1440.18,-547 -1676.25,-1209.07 -3530.24,-1621.46 -1666.7,-370.73 -3337.1,-513.38 -5057.97,-923.87 -4750.07,-1133.07 -8877.96,-3659.69 -9570.14,-8895.61 -364.53,-2757.37 808.92,-7287.58 219.08,-9320.32 -356.62,-1228.98 -1504.66,-2685.54 -2628.99,-3293.93 -1079.66,-584.22 -1734.34,-703.04 -648.44,-1850.92 2212.33,-2338.63 -230.52,-3616.53 -2755.02,-2905.21 -5108.76,1507.99 -7976.75,6475.56 -9814.43,11114.94 -1283.91,3241.35 -2592.42,7630.45 -6334.93,8765.73 -1830.42,555.25 -4518.13,-307.78 -6520.78,-435.52 -3952.64,-252.12 -12357.02,520.95 -15620.86,-702.26 -1414.48,-530.12 -3026.61,-1912.97 -4642.65,-2607.24 -2359.61,-1013.73 -4202.76,-897.55 -6501.87,164.86 -1829.06,845.2 -2412.34,1057.56 -3580.81,-918.85 -2368.66,-4006.46 -1937.21,-7548.93 -545.87,-11775.18 207.5,-630.29 2462.65,-6733.11 1356.06,-6644.62 -1148.78,91.86 -4861.08,5527.9 -5559.3,6659.65 -988.23,1601.81 -1551.68,2828.49 -2322.81,4519.58 -411.92,903.35 -890.5,1546.21 -1355.92,2386.72l-45.47 82.12"/>
  <path class="fil1 str0" d="M-4.13 54510.9c1800.23,2047.84 3934.58,4542.48 6499.56,5619.66 1158.42,486.49 3875.13,1487.37 5062.72,1530.03 1162.86,41.78 2276.77,-285.81 3424.73,-411.09 4534.76,-529.78 7064.46,-2536.61 9363.42,-6406.14 957.75,-1612.06 1333.79,-3116.94 -544.52,-4250 -1682.07,-1014.68 -2613.67,298.73 -4209.63,-455.81 -852.38,-402.99 -2563.52,-1322.45 -2937.2,-2210.54 -824.45,-1959.41 -1.83,-5591.06 -2308.47,-1832.26 -136.61,222.63 -706.87,845.72 -856.88,962.72 -1030.35,803.66 -1725.77,46.15 -1679.64,-1142.44 37.67,-970.8 562.89,-2913.01 772.35,-3987.03 309.38,-1586.44 443.26,-2319.54 1782.56,-3403.17 2509.46,-2030.42 6011.98,-1982.41 9038.07,-1444.69 3589.91,637.9 6478.05,1634.37 7838.74,5317.23 238.24,644.82 646.63,2384.72 1441.42,2467.39 547.95,57 2910.31,-1060.11 3582.27,-1324.61 5504.58,-2166.74 9228.2,-1677.22 14901.8,-1901.39 1883.08,-74.4 3788.69,-38.22 5645.74,-125.82 1245.01,-58.73 2319.63,-220.7 3538.77,-476.24 2402.54,-514.38 4165.3,-611.09 6602.28,-677.13 3258,-88.29 8673.38,21.34 11565.73,-1300.04 2260.11,-1032.54 3286.5,-2344.22 6093.72,-2355.45 1796.19,-7.18 2842.99,554.74 4461.78,867.89 1340.9,259.38 1943.98,-297.73 2534.84,-1495.31 575.36,-1166.17 884.36,-2725.88 967.87,-4022.78 201.1,-3759 -915.37,-6945.47 -1403.86,-10546.76 -149,-1098.4 -28.57,-1416.39 841,-538.1 1661.46,1678.11 4021.85,5936.12 5193.23,8124.25 514.58,961.22 831.31,1659.92 1750.29,2275.45 408.8,273.81 687.75,567.91 1038.55,922.09"/>
  <path class="fil1 str1" d="M99995.87 62928.4c-2172.52,1633.08 -4275.15,2519.5 -7970,3010.53 -2610.17,316.04 -4817.45,-414.07 -7271.64,-1195.09 -3339.81,-1062.87 -4803.58,-2726.85 -7640.78,-4537.88 -5382.19,-3435.55 -9682.94,-5623.7 -13754.38,-10848.4 -1086.64,-1394.44 -3646.45,-5213.83 -3798.38,-6979.19 -54.58,-634.21 636.48,522.82 710.22,621.8 1505.34,2020.64 3642.44,4548.88 5880.59,5709.03 1301.15,674.46 2538.1,1542.64 3877.67,2248.8 1215.95,640.99 2217.66,1081.45 3488.65,1589.98 972.44,389.08 150.42,477.33 1202.34,1005.79 2283.33,1147.11 8591.57,2823.88 10008.76,-205.82 461.52,-986.65 458.49,-1059.85 -473.01,-1810.35 -2114.31,-1703.46 -3784.28,-1523.15 -6297.31,-2095.34 -7129.16,-1623.21 -11606.48,-5173.09 -10970.57,-13005.13 167.33,-2060.98 725.79,-4573.26 -487.05,-6401.48 -1828.04,-2755.55 -3890.5,-1972.04 -4310.73,-2593.79 -594.14,-879.08 3873.19,-3749.42 469.16,-4120.29 -3814.49,-307.09 -7526.81,4241.54 -9148.49,7266.79 -1633.22,3046.77 -2328.66,6457.68 -3862.45,9392.23 -1744.81,3338.3 -4685.07,4689.53 -8334.94,3673.23 -2667.3,-742.7 -4866.9,-760.08 -7609.61,-813.37 -2846.62,-55.32 -8490.58,56.93 -10936.84,-1109.75 -2740.96,-1307.22 -4753.49,-3642.81 -8219.99,-3188.59 -1582.95,207.41 -2370.65,881.36 -3721.43,1360.65 -1110.84,394.16 -1671.2,-280.43 -2248.4,-1185.83 -1156.88,-1814.66 -1969.57,-4367.46 -2011.81,-6530.07 -64.76,-3316.32 1129.23,-6042.26 1740.57,-9184.69 359.3,-1846.9 -187.55,-1521.71 -1177.78,-491.43 -1894.09,1970.68 -4183.16,5900.41 -5116.15,8502.43 -476.29,1328.31 -783.21,2294.13 -1731.57,3389.24 -139.25,153.78 -164.01,207.34 -284.65,394.37"/>
  <path class="fil1 str0" d="M-4.13 55074.19c1937.18,1971.57 3990.56,4342.01 6592.06,5423.63 1247.55,518.7 4080.77,1538.74 5366.94,1536.11 1295.86,-2.65 1889.49,-434.7 3111.95,-642.4 4278.84,-743.57 6292.64,-2045.82 8833.95,-5594.15 1241.65,-1733.67 2416.84,-4031.72 -34.85,-5370.24 -1839.32,-1004.19 -2730.31,301.5 -4329.18,-480.37 -922.76,-451.24 -2417.18,-1240.06 -2732.63,-2284.75 -404.24,-1338.7 -276.81,-2349.46 -356.37,-3684.09 -82.63,-1386.4 -1243.49,-363.78 -1670.99,188.75 -300.4,388.27 -1160.6,1576.86 -1582.23,622.07 -435.9,-987.12 486.34,-4487.02 1115.98,-5420.81 2000.76,-2967.25 7822.88,-2492.2 10783.13,-1507.83 3101.86,1031.46 4810.38,2009.41 5841.31,5223.71 259.46,808.97 612.02,2803.06 1686.59,2706.78 529.55,-47.45 2191.53,-954.34 2827.75,-1235.63 4254.57,-1881.06 6925.99,-1821.42 11423.22,-1894.76 2716.75,-44.3 5294.53,-303.19 8036,-251.2 1890.93,35.85 3595.33,83.84 5448.62,-398.01 2115.19,-578.68 3472.84,-756.47 5641.19,-908.42 3377.97,-236.71 9143.73,-262.13 12114.1,-1569.08 2546.72,-1120.54 3818.66,-2765.1 6965.4,-2598.98 1438.83,75.95 2414.23,467.11 3760.08,821.03 1722.63,453 2250.84,-354.67 2926.74,-1885.75 1343.41,-3043.14 889,-6477.37 1209.93,-9715.99 120.32,-1143.72 121.05,-1711.53 1126.43,-692.43 1420.87,1440.27 2215.01,3816.29 3217.09,5547.07 831.43,1436.03 1366.46,1042.54 2359.27,1910.48l318.52 278.45"/>
  <path class="fil1 str1" d="M99995.87 63270.97c-2263.03,1633.7 -4338.54,2506.91 -8188.5,3014.26 -2845.19,341.86 -4273.93,-486.01 -6871.5,-1374.96 -3292.55,-1126.8 -3775.94,-1849.93 -6493.76,-3762.89 -3086.39,-2172.39 -6353.82,-3834.04 -9419.73,-6168.98 -3861.77,-2941.06 -7422.47,-7062.45 -9252.8,-11598.06 -13.26,-32.87 -809.69,-2177.65 -343.77,-1828.75 9.85,7.37 1633.89,2269.31 1807.77,2489.29 1178.05,1490.4 2695.59,3197.92 4385.34,4084.05 1087.24,570.16 2160.44,1346.05 3292,1951.57 2120.66,1134.79 3613.14,1603.43 5858.9,2333.52 947.26,307.95 981.57,335.51 1723.62,921.09 968.08,763.94 5859.81,1468.41 6353.39,-115.05 123.82,-397.23 94.08,-438.63 293.29,-859.53 269.61,-569.64 -121.7,-959.39 -561,-1344.19 -860.5,-753.74 -3170.15,-1038.95 -4358.87,-1337.39 -8364.31,-2099.97 -12587.58,-6135.18 -11432.47,-15151.82 309.17,-2413.33 95.8,-3866.95 -1889.1,-5478.33 -2515.47,-2042.12 -5079.89,975.83 -3537.57,-2269.72 419.57,-882.92 2902.11,-3132.81 -235.47,-2607.87 -4845.74,906.17 -7862.13,7143.62 -9275.97,11367.65 -856.16,2557.87 -1794.05,6176.77 -3933.97,7941.67 -1928.1,1590.2 -4562.96,2144.63 -6937.49,1307.99 -2004.14,-706.14 -2418.28,-849.01 -4585.53,-1037.62 -3426.67,-298.2 -10959.08,-285.57 -13766.55,-1713.79 -2826.94,-1438.13 -5242.17,-4043.52 -8835.63,-3087.3 -1223.95,325.69 -2111.43,976.9 -3167.03,1313.15 -1045.1,332.89 -1582.15,-501.71 -2085.02,-1326.01 -1766.35,-2895.38 -2256.84,-5717.47 -2264.39,-9051.65 -1.28,-566.33 71.9,-3572.29 -35.49,-3848.61 -284.94,-733.17 -1795.57,1237.29 -1982.68,1524.88 -1291.27,1984.75 -1672.52,4049.06 -2484.88,6169.86 -324.05,845.99 -640.35,1253.24 -1326.18,1841.25 -202.53,166.5 -269.21,207.93 -448.96,423.61"/>
  <path class="fil1 str0" d="M-4.13 55644.39c3111.13,2783.77 4106.72,4406.13 8266.29,5787.14 1886.21,626.24 3941.15,1541.21 5845.09,493.31 785.09,-432.11 2357.54,-646.24 3323.38,-944.21 3231.24,-1038.14 5896.91,-3644.43 7477.32,-6598.83 939.86,-1756.98 826.79,-3057.32 -1025.32,-4082.39 -1824.42,-1009.75 -2740.75,353.64 -4485.68,-567.52 -885.71,-467.56 -2130.87,-1175.6 -2397.74,-2213.33 -470.76,-1830.57 306.62,-4114.6 -29.75,-5030.97 -187.43,-510.62 -786.29,-748.81 -1267.18,-472.86 -531.1,304.75 -1253.7,1082.21 -1098.89,-269.9 167.51,-1463.09 878.27,-3187.78 2332.59,-3789.79 1922.78,-795.92 5486.16,-506.66 7461.05,84.92 1747.8,523.56 4123.34,1620.92 5199.96,3137.79 1007.2,1419.05 1122.37,2921.27 1697.53,4469.61 577.33,1554.17 1379.72,973.33 2556.51,373.91 2870.84,-1462.31 4802.65,-2199.64 8080.23,-2374.65 2156.87,-115.17 4215.32,69.38 6420.54,-89.3 2267.31,-163.15 4023.4,-394.78 6342.12,-324.43 1472.33,44.67 4652.33,217.11 5980.88,-126.25 948.31,-278.67 1579.5,-566.6 2611.22,-773.93 2196.31,-441.35 4950.05,-630.51 7213.58,-880.21 2763.61,-304.87 6038.87,-622.66 8516.44,-1943.54 2862.27,-1525.98 4129.17,-2831.56 7712.67,-2043.75 2889.55,635.25 3825.84,1830.4 5270.93,-1760.9 742.15,-1844.39 1094.15,-3786.04 1768.38,-5597.18 123.46,-331.62 334.84,-954.48 705.78,-1078.41 905.1,-156.75 2083.12,2845.29 2472.36,3430.27 699.73,1051.64 1580.63,777.13 2590.35,1349.68 191.48,108.57 253.32,149.74 459.36,293.01"/>
  <path class="fil1 str1" d="M99995.87 63639.17c-1017.61,701.86 -2070.55,1321.32 -3150.91,1720.82 -2204.03,798.8 -6169.13,1832.79 -8435.53,1100.19 -1055.97,-341.33 -2127.62,-934.28 -3213.72,-1335.96 -3339.84,-1235.22 -3468.23,-1482.95 -6264.4,-3590.16 -2250.79,-1696.21 -5063.75,-3171.49 -7460.74,-4769.07 -5087.4,-3390.72 -9215.08,-7480.83 -11657.5,-13179.03 -4.42,-10.33 -1177.06,-2934.42 -545.64,-2485.42 135.06,96.05 1147.51,1677.99 1382.67,1990.72 1248.28,1659.97 2648.53,3616.61 4498.75,4627.51 898.02,490.65 1776.4,1135.64 2721.99,1656.38 1981.58,1091.28 3251.63,1548.62 5457.34,2008.04 1780.06,370.77 2997.55,779.29 4690.9,1366.85 1057.47,366.92 2134.1,642.23 2913.26,-347.48 1409.64,-1790.56 21.13,-1729.37 -1607.99,-2150.84 -6134.94,-1587.15 -11829.49,-4265.58 -12844.2,-11192.05 -290.29,-1981.57 -196.28,-3507.27 -105.23,-5473.32 82.73,-1786.41 -402.89,-3145.49 -1950.4,-4171.86 -2055.43,-1195.23 -3542.45,292.4 -4389.95,31.61 -727.24,-223.79 -66.42,-1851.08 156.61,-2252.67 426.37,-767.73 2147.93,-2772.42 -278.85,-1929.75 -5259.79,1826.41 -7210.88,9094.53 -8671.13,13841.66 -1408.04,4577.35 -2926.53,6202.8 -7718.29,6994.21 -1094.78,180.82 -1995.47,466.05 -2985.95,-134.31 -1564.2,-948.12 -2214.59,-1147.93 -4038.58,-1386.02 -3799.66,-495.98 -8354.72,-527.77 -11981.24,-1430.9 -2955.68,-736.07 -4450.05,-2685.92 -7095.18,-3657.58 -2312.49,-849.47 -3805.55,-360.69 -5887.21,704.55 -1868.54,956.17 -2134.67,525.22 -3161.35,-1221.76 -1740.52,-2961.66 -2192.21,-5491.88 -3108.48,-8696.49 -249.02,-870.92 -416.86,-1525.65 -1210.62,-441.28 -1245.43,1701.4 -1239.11,4633.27 -2251.97,5955.69 -446.12,582.47 -1188.96,790.73 -1806.46,1200.75"/>
  <path class="fil1 str1" d="M49995.87 28872.68c3285.37,-709.5 6857.41,-1360.82 8766.52,-1166.88 4238.95,430.62 7170.11,4071.83 10968.3,5878.79l196.46 93.46c2546.63,1186.31 4870.43,1603.69 7578.32,687.47 1732.25,-586.11 3382.72,-1386.23 5147.05,-1991.29 348.48,-119.5 2516.35,-808.81 2661.58,-994.44 591.26,-755.73 -2072.72,-2244.84 -2640.65,-2534.98 -2568.14,-1311.99 -8314.92,-3526.18 -7544.92,-7278.06 291.8,-1421.79 1893.9,-2820.94 2904.21,-3860.07 2483.49,-2554.32 7717.19,-7582.56 11322.81,-7912.06 1335.07,-91.8 2275.89,1159.99 3015.27,2103.58 2084.06,2659.63 2961.16,4510.24 5715.42,6755.17l1909.63 1571.87"/>
  <path class="fil1 str1" d="M49995.87 29787c814.63,-177.45 1636.39,-348.37 2467.8,-503.99 6928.64,-1296.94 8127.08,-952.68 13967.06,2849.3 2361.39,1537.32 4364.93,2693.99 7221.63,3055.71 2993.83,345.27 4944.12,-985.86 7694.96,-1845.29 1720.58,-537.56 3430.77,-882.15 5226.87,-1031.06 976.87,-80.99 860.91,-529.63 340.89,-1199.02 -1202.14,-1547.4 -5221.59,-3056.05 -7089.43,-4035.53 -2909.64,-1525.79 -6146.46,-3994.56 -3196.85,-7346.02 779.73,-885.96 1753.04,-1904.49 2583.95,-2752.32 2197.06,-2241.8 4841.65,-4570.89 7654.38,-5991.93 3112.4,-1543.57 4050.17,-468.09 5938.29,2044.69 1945.08,2588.6 2756.49,4057.69 5376.34,6155.22l1814.11 1446.7"/>
  <path class="fil1 str1" d="M49995.87 30685.83c3474.74,-723.65 7083.45,-1357.17 9214.92,-1142.8 2861.5,287.79 5471.77,2179.62 7934.16,3581.55 3198.65,1813.24 6529.59,3237.46 10220.8,2031.66 1714.04,-559.92 2960.18,-1192.41 4800.47,-1625.88 2028.31,-477.77 3447.46,-573.04 5515.07,-532.18 1417.43,28.02 1028.39,-1277.7 362.74,-1957.85 -2102.82,-2148.62 -7333.05,-3542.9 -10056.93,-5502.52 -1829.55,-1316.22 -2847.79,-3042.28 -1368.19,-5097.41 549.46,-763.19 1584.77,-1885.86 2248.19,-2617.85 2267.81,-2502.21 6049.17,-6105.76 9382.75,-6922.28 1676.69,-381.96 2294.12,225.6 3407.68,1426.32 2462.67,2655.42 3394.18,4973.53 6545.38,7323.21 327.85,244.45 1508.97,1137.63 1792.96,1385.64"/>
  <path class="fil1 str1" d="M49995.87 31606.3c1795.97,-383.56 3593.72,-744.14 5332.32,-979.26 4905.14,-663.34 7043.66,478 11272.4,2695.29 2493.39,1307.37 4692.93,2402.36 7555.37,2630.96 2917.67,201.62 4709.4,-1270.59 7450.97,-1958.85 2340.95,-587.68 4171.01,-654.97 6558.3,-477.04 1194.58,89.04 1533,-547.15 1352.78,-1669.6 -269.65,-1679.45 -2482.73,-2520.9 -3874.4,-3166.48 -2446.28,-1134.79 -7277.31,-2527.11 -8773.19,-4711.24 -1398.51,-2041.95 240.84,-3421.1 1480.35,-4933.25 920.29,-1122.72 1751.08,-2115.86 2802.11,-3129.08 1681.64,-1601.99 6596.03,-5975.42 9088.38,-4337.99 1790.72,1176.48 4096.35,4906.3 5775.43,6684.04 1130.46,1196.9 2728.59,2315.76 3979.18,3339.13"/>
  <path class="fil1 str1" d="M49995.87 32505.4c1042.79,-216.1 2087.85,-429.36 3141.66,-628.67 7103.71,-1343.54 8490.93,-271.79 14757.34,2606.75 2149.74,987.5 4112.28,1734.06 6504.79,1853.04 2847.02,110.95 4508.55,-1375.91 7178.77,-2043.58 2302.81,-575.79 4353.01,-572.49 6696.16,-337.22 1307.86,131.32 1826.12,-432.4 1865.33,-1729.33 95.39,-3155.13 -3482.52,-4009.46 -5831.03,-4840.78 -2001.13,-708.35 -5575.96,-1724.82 -6888.22,-3355 -1555.14,-1931.91 296.28,-3648.85 1506.62,-5190.73 2023.85,-2578.24 6335.54,-6965.33 9792.05,-6984.55l168.07 -0.93c1772.62,32.8 4168.49,3334.79 5222.11,4642.13 1443.75,1791.44 2607.66,3061.13 4483.51,4418.88l1402.84 1107.23"/>
  <path class="fil1 str1" d="M49995.87 33368.8c1356.9,-265.8 2715.25,-523.33 4082.29,-748.51 6474.98,-1066.61 8118.15,-35.53 13840.9,2365.87 1987.67,834.07 3703.69,1401.08 5865.72,1620.96 3736.7,348.84 4729.39,-1351.92 8070.5,-2092.19 2586.79,-573.14 4154.33,-379.87 6714.28,-99.02 1744.25,191.36 2136.47,-1432.9 2017.58,-2845.57 -203.55,-2418.52 -2389.72,-3993.32 -4577.23,-4566.17 -2171.2,-568.58 -6957.51,-1544.85 -8213.71,-3415.17 -897.38,-1336.09 187.42,-2566.79 934.43,-3661.51 1698.48,-2489.07 3061.18,-4068.68 5547.95,-5822.98 1524.81,-1062.98 3814.23,-2418.94 5655.61,-1359.58 1856.85,1068.26 4450.98,4760.05 6148.23,6489.42 1254.29,1278.04 2561.14,2314.21 3913.45,3434.22"/>
  <path class="fil1 str1" d="M49995.87 34287.3c696.34,-127.14 1394.75,-257.63 2097,-392.17 7719.86,-1479.09 8695.65,-1034.07 15929.02,1609.02 2289.21,836.48 4369.45,1483.72 6835.42,1501.98 2799.9,-5.77 4271.25,-1557.55 6918.8,-2193.72 2345.28,-563.53 4345.76,-457.53 6695.64,-62.92 1727.53,290.1 2163.62,-748.56 2406.91,-2272.11 566.93,-3550.27 -2574.36,-6014.46 -5763.33,-6603.72 -1982.54,-366.33 -8583.02,-1202.67 -6653.1,-4575.82 1678.89,-2934.38 3627.24,-5378.7 6448.82,-7288.18 1451.77,-968.7 3429.9,-1960.14 5078.55,-880.03 1867.96,1223.79 4432.89,5074.55 6240.17,6903.64 1246.51,1261.54 2407.13,2146.39 3766.1,3238.89"/>
  <path class="fil1 str1" d="M49995.87 35141.09c2159.15,-376.53 4324.97,-785.09 6452.82,-1050.17 3976.93,-495.42 6510.71,243.51 10279.66,1477.46 3027.93,997.06 7832.87,2546.53 10890.12,1225.63 2142.33,-925.61 3025.33,-1688.62 5546.03,-2015.65 2012.37,-261.07 3532.39,3.75 5488.92,359.58 1776.41,323.06 2243.48,-1049.31 2506.63,-2518.1 665.91,-3716.74 -2287.22,-6745.96 -5764.9,-7475.09 -1501.06,-314.72 -6470.4,-614.85 -6531.22,-2676.46 -19.19,-650.65 961.37,-2355.04 1320.81,-2995.95 244.73,-436.37 490.39,-810.39 780.19,-1217.87 1560.17,-2146.74 5672.76,-6012.7 8569.23,-4609.94 2213.07,1071.79 5127.83,5309.7 7002.25,7265.19 1202.7,1254.73 2155.19,1986.14 3459.46,3095.9"/>
  <path class="fil1 str1" d="M49995.87 35972.5c537.84,-75.57 1077.5,-155.44 1620.09,-242.4 7667.34,-1228.87 8592.13,-1451.72 16172.49,680.22 2633.8,740.74 5009.75,1356.69 7778.92,1207.61 2220.25,-138.54 3610.36,-1528.49 5727.47,-2187.29 2537.21,-789.53 4770.73,-549.23 7308.35,11.03 1840.32,406.3 2345.04,-817.8 2718.07,-2381.31 996.38,-4176.27 -2091.8,-7807.29 -6078.21,-8729.48 -1373.84,-317.82 -4719.93,-352.96 -5339.69,-1719.19 -306.14,-674.85 323.05,-1871.35 620.09,-2509.06 1026.68,-2204.18 2331.58,-3764.26 4348.64,-5127.41 1524.48,-1009.43 3187.53,-1732.67 4897.51,-730.23 2174.96,1275.03 4965.63,5326.1 6823.96,7350.77 1176.41,1281.72 2142.1,2217.16 3402.31,3394.8"/>
  <path class="fil1 str1" d="M49995.87 36791.88c629.3,-71.4 1258.48,-147.79 1886.88,-234.35 3220.47,-443.65 6499.07,-1119.83 9750.35,-808 4796.89,460.06 9247.6,2530.85 14097.79,2167.7 2247.19,-186.73 3635.54,-1659.56 5827.55,-2323.35 2508.84,-759.72 4648.75,-430.5 7130.21,155.26 1930.75,455.76 2478.84,-1059.99 2843.61,-2658.79 943.79,-4136.58 -1840.18,-7960.51 -5673.12,-9357.88 -1209.37,-440.9 -2231.08,-544.74 -3415.03,-862.74 -1775.62,-476.91 -1648.64,-1351.25 -1112.48,-2859.72 768.88,-2163.22 2406.83,-3891.64 4408.83,-4973.67 2727.08,-1429.34 4453.63,-133.99 6361.21,1856.27 1916.34,1999.39 3627.86,4427.89 5524.9,6533.61 824.16,914.83 1520.06,1593.93 2369.3,2482.15"/>
  <path class="fil1 str1" d="M49995.87 37641.35c539.93,-45.65 1079.48,-97.01 1617.67,-159.08 2181.46,-251.59 4384.11,-593.87 6552.35,-827.12 1772.65,-190.69 3259.9,-184.92 5035.96,1.29 3668.04,403.55 11057.38,2523.7 14330.71,1161.93 1660.58,-690.83 2575.85,-1580.87 4514.29,-2081.44 2400.63,-619.92 4305.75,-301.68 6647.59,301.24 1943.46,500.35 2514.39,-944.75 2949.71,-2566.96 974.82,-3632.63 -898.59,-7341.58 -3830.67,-9482.57 -1413.78,-1006.21 -2670.16,-1462.99 -4262.13,-2051.89 -1341.09,-496.1 -1348.59,-1189.35 -971.84,-2468.52 754.1,-2560.36 3881.73,-5406.64 6677.55,-4221.75 2683,1137.08 5989.9,6063.7 7918.18,8438.45 977.52,1203.84 1808.19,1987.38 2820.63,3152.22"/>
  <path class="fil1 str1" d="M49995.87 38428.61c714.75,-43.07 1429.81,-93.08 2144.61,-160.46 2121.88,-200.01 4146.87,-475.75 6252.64,-724.95 1362.65,-161.25 2590.86,-234.29 3965.28,-189.96 4393.36,167.34 9560.97,1667.24 13816.88,1115.88 2352.46,-304.77 3599.9,-1832.08 5947.64,-2481.01 2391.85,-661.13 4378.26,-224.91 6706.52,355.29 1751.99,436.6 2293.51,-722.01 2820.45,-2200.91 1322.84,-3712.72 -636.42,-7641.49 -3117.14,-10366.78 -1164.88,-1261.44 -2460.1,-2394.11 -3768.88,-3501.51 -994.47,-841.45 -345.9,-2669.61 415.83,-3509.49 1363.69,-1503.56 3013.65,-1471.25 4658.21,-456.07 3431.75,2118.4 6868.94,7808.2 9579.49,11032.72 246.43,293.17 340.9,419.85 578.47,721.83"/>
  <path class="fil1 str1" d="M49995.87 39202.63c652.51,-26.19 1312.74,-57.32 1984.24,-101.39 2327.75,-152.8 4357.35,-324.1 6674.77,-645.01 2850.12,-394.68 4892.2,-315.42 7735.87,-46.06 3186.45,305.58 8806.05,1146.39 11699.92,-182.53 1845.07,-847.29 2595.09,-1737.74 4841.38,-2175.55 2064.54,-402.38 3848.3,-47.38 5834.56,496.98 1701.65,466.36 2162.87,-357.27 2804.27,-1818.59 1737.25,-3958.01 -453.57,-8480.94 -2561.22,-11837.49 -500.71,-792.53 -2679.42,-3956.1 -2759.87,-4680.52 -139.69,-1257.79 967.08,-2306.14 2313.27,-1879.13 3260.52,1034.22 7784.72,7876.32 9793.19,10755.61 428.23,613.91 959.85,1168.8 1417.33,1785.21l222.29 299.52"/>
  <path class="fil1 str1" d="M49995.87 40030.22c472,-12.45 942.16,-28.59 1408.95,-52.09 2476.57,-124.7 4810.76,-173.35 7274.12,-565.75 2596.88,-424.77 4043.57,-516.43 6680.5,-414.88 3410.38,131.35 9717.47,892.63 12749.01,-453.33 1974.16,-876.5 2873.25,-1914.37 5278.88,-2253.84 2103.26,-296.8 3491.76,216.85 5459.97,681.96 1782.24,421.17 2334.42,-590.44 2914.25,-2083.6 1865.3,-4803.52 -1246.24,-10399.35 -2790.99,-14910.87 -188.02,-555.77 -653.82,-1728.14 -393.94,-2278.78 435.69,-923.16 1531.86,29.62 2015.03,427.24 2584.73,2127.1 5679.54,6875.62 7527.64,9768.99 528.4,827.25 1116.15,1376.22 1694.23,2138.16l182.35 240.35"/>
  <path class="fil1 str1" d="M49995.87 40883.6c1673.55,-44.89 3372.45,-124.42 5024.33,-182.3 1635.91,-57.33 3031.14,-195.56 4644.98,-486.11 2327.23,-427.55 3742.6,-508.8 6099.3,-504.41 3250.74,6.07 9741.94,439.81 12530.89,-979.31 2299.02,-1169.82 3093.87,-2193.23 5954.59,-2365.65 1731.19,-104.35 2966.87,277.7 4591.65,748.53 1774.93,514.35 2321.32,-575.56 2935.65,-2073.88 1899.33,-4632.36 -681.07,-10306.46 -1677.58,-14920.76 -502.72,-2379.17 450.76,-1666.48 1584.06,-428.85 2099.71,2293.03 4455.23,6126.11 6016.97,8858.44 575.92,1007.6 723.52,1145.92 1557.36,1922.83 217.64,202.79 554.83,629.6 737.8,849.79"/>
  <path class="fil1 str1" d="M49995.87 41676.69c381.63,-9.88 771.63,-22.14 1171.3,-37.93 1883.08,-74.39 3788.69,-38.22 5645.74,-125.82 1245.01,-58.73 2319.63,-220.7 3538.77,-476.24 2402.54,-514.38 4165.3,-611.09 6602.28,-677.13 3258,-88.29 8673.38,21.34 11565.73,-1300.04 2260.11,-1032.54 3286.5,-2344.22 6093.72,-2355.45 1796.19,-7.18 2842.99,554.74 4461.78,867.89 1340.9,259.38 1943.98,-297.73 2534.84,-1495.31 575.36,-1166.17 884.36,-2725.88 967.87,-4022.78 201.1,-3759 -915.37,-6945.47 -1403.86,-10546.76 -149,-1098.4 -28.57,-1416.39 841,-538.1 1661.46,1678.11 4021.85,5936.12 5193.23,8124.25 514.58,961.22 831.31,1659.92 1750.29,2275.45 408.8,273.81 687.75,567.91 1038.55,922.09"/>
  <path class="fil1 str1" d="M49995.87 42542.12c1622.46,-80.51 3236.97,-164.88 4912.63,-133.11 1890.92,35.85 3595.33,83.84 5448.62,-398.01 2115.19,-578.68 3472.84,-756.47 5641.19,-908.42 3377.97,-236.71 9143.73,-262.13 12114.1,-1569.08 2546.72,-1120.54 3818.66,-2765.1 6965.4,-2598.98 1438.83,75.95 2414.23,467.11 3760.08,821.03 1722.63,453 2250.84,-354.67 2926.74,-1885.75 1343.41,-3043.14 889,-6477.37 1209.93,-9715.99 120.32,-1143.72 121.05,-1711.53 1126.43,-692.43 1420.87,1440.27 2215.01,3816.29 3217.09,5547.07 831.43,1436.03 1366.46,1042.54 2359.27,1910.48l318.52 278.45"/>
  <path class="fil1 str1" d="M49995.87 43426.01c1550.25,-129.9 2967.44,-245.62 4698.05,-193.12 1472.32,44.67 4652.33,217.11 5980.88,-126.25 948.31,-278.67 1579.5,-566.6 2611.22,-773.93 2196.31,-441.35 4950.05,-630.51 7213.58,-880.21 2763.61,-304.87 6038.87,-622.66 8516.44,-1943.54 2862.27,-1525.98 4129.17,-2831.56 7712.67,-2043.75 2889.55,635.25 3825.84,1830.4 5270.93,-1760.9 742.15,-1844.39 1094.15,-3786.04 1768.38,-5597.18 123.46,-331.62 334.84,-954.48 705.78,-1078.41 905.1,-156.75 2083.12,2845.29 2472.36,3430.27 699.73,1051.64 1580.63,777.13 2590.35,1349.68 191.48,108.57 253.32,149.74 459.36,293.01"/>
 </g>
</svg>
